<svg id="svg" xmlns="http://www.w3.org/2000/svg" xmlns:xlink="http://www.w3.org/1999/xlink" width="400" height="139" viewBox="0, 0, 400,139"><g id="svgg"><path id="path0" d="M57.333 0.167 C 57.333 0.262,56.832 0.333,56.161 0.333 C 55.273 0.333,54.966 0.394,54.894 0.583 C 54.823 0.766,54.535 0.833,53.816 0.833 C 53.054 0.833,52.833 0.889,52.833 1.083 C 52.833 1.275,52.620 1.333,51.911 1.333 C 51.246 1.333,50.963 1.403,50.894 1.583 C 50.828 1.753,50.563 1.833,50.066 1.833 C 49.526 1.833,49.333 1.899,49.333 2.083 C 49.333 2.269,49.139 2.333,48.583 2.333 C 48.028 2.333,47.833 2.398,47.833 2.583 C 47.833 2.769,47.639 2.833,47.083 2.833 C 46.528 2.833,46.333 2.898,46.333 3.083 C 46.333 3.269,46.139 3.333,45.583 3.333 C 45.028 3.333,44.833 3.398,44.833 3.583 C 44.833 3.750,44.667 3.833,44.333 3.833 C 44.000 3.833,43.833 3.917,43.833 4.083 C 43.833 4.264,43.648 4.333,43.161 4.333 C 42.718 4.333,42.457 4.418,42.394 4.583 C 42.339 4.726,42.090 4.833,41.816 4.833 C 41.498 4.833,41.333 4.919,41.333 5.083 C 41.333 5.250,41.167 5.333,40.833 5.333 C 40.500 5.333,40.333 5.417,40.333 5.583 C 40.333 5.750,40.167 5.833,39.833 5.833 C 39.500 5.833,39.333 5.917,39.333 6.083 C 39.333 6.250,39.167 6.333,38.833 6.333 C 38.500 6.333,38.333 6.417,38.333 6.583 C 38.333 6.750,38.167 6.833,37.833 6.833 C 37.500 6.833,37.333 6.917,37.333 7.083 C 37.333 7.250,37.167 7.333,36.833 7.333 C 36.500 7.333,36.333 7.417,36.333 7.583 C 36.333 7.750,36.167 7.833,35.833 7.833 C 35.500 7.833,35.333 7.917,35.333 8.083 C 35.333 8.250,35.167 8.333,34.833 8.333 C 34.500 8.333,34.333 8.417,34.333 8.583 C 34.333 8.721,34.221 8.833,34.083 8.833 C 33.946 8.833,33.833 8.946,33.833 9.083 C 33.833 9.250,33.667 9.333,33.333 9.333 C 33.000 9.333,32.833 9.417,32.833 9.583 C 32.833 9.740,32.675 9.833,32.411 9.833 C 32.179 9.833,31.946 9.946,31.894 10.083 C 31.841 10.221,31.693 10.333,31.566 10.333 C 31.438 10.333,31.333 10.446,31.333 10.583 C 31.333 10.750,31.167 10.833,30.833 10.833 C 30.500 10.833,30.333 10.917,30.333 11.083 C 30.333 11.221,30.221 11.333,30.083 11.333 C 29.946 11.333,29.833 11.446,29.833 11.583 C 29.833 11.740,29.675 11.833,29.411 11.833 C 29.179 11.833,28.946 11.946,28.894 12.083 C 28.841 12.221,28.693 12.333,28.566 12.333 C 28.438 12.333,28.333 12.446,28.333 12.583 C 28.333 12.721,28.200 12.833,28.037 12.833 C 27.874 12.833,27.509 13.040,27.226 13.292 C 26.611 13.839,26.213 14.111,25.708 14.330 C 25.502 14.419,25.333 14.569,25.333 14.663 C 25.333 14.756,25.221 14.833,25.083 14.833 C 24.946 14.833,24.833 14.946,24.833 15.083 C 24.833 15.221,24.721 15.333,24.583 15.333 C 24.446 15.333,24.333 15.446,24.333 15.583 C 24.333 15.721,24.221 15.833,24.083 15.833 C 23.946 15.833,23.833 15.946,23.833 16.083 C 23.833 16.221,23.688 16.333,23.511 16.333 C 23.334 16.333,23.029 16.558,22.833 16.833 C 22.638 17.108,22.332 17.333,22.155 17.333 C 21.978 17.333,21.833 17.446,21.833 17.583 C 21.833 17.721,21.721 17.833,21.583 17.833 C 21.446 17.833,21.333 17.946,21.333 18.083 C 21.333 18.221,21.221 18.333,21.083 18.333 C 20.946 18.333,20.833 18.446,20.833 18.583 C 20.833 18.721,20.721 18.833,20.583 18.833 C 20.446 18.833,20.333 18.946,20.333 19.083 C 20.333 19.221,20.221 19.333,20.083 19.333 C 19.946 19.333,19.833 19.446,19.833 19.583 C 19.833 19.721,19.721 19.833,19.583 19.833 C 19.446 19.833,19.333 19.946,19.333 20.083 C 19.333 20.221,19.221 20.333,19.083 20.333 C 18.946 20.333,18.833 20.446,18.833 20.583 C 18.833 20.721,18.721 20.833,18.583 20.833 C 18.446 20.833,18.333 20.908,18.333 21.000 C 18.333 21.216,17.716 21.833,17.500 21.833 C 17.408 21.833,17.333 22.041,17.333 22.294 C 17.333 22.611,17.217 22.805,16.958 22.919 C 16.752 23.009,16.509 23.252,16.419 23.458 C 16.328 23.665,16.160 23.833,16.044 23.833 C 15.928 23.833,15.833 23.946,15.833 24.083 C 15.833 24.221,15.721 24.333,15.583 24.333 C 15.446 24.333,15.333 24.446,15.333 24.583 C 15.333 24.721,15.221 24.833,15.083 24.833 C 14.946 24.833,14.833 24.946,14.833 25.083 C 14.833 25.221,14.756 25.333,14.663 25.333 C 14.569 25.333,14.419 25.502,14.330 25.708 C 14.125 26.181,13.803 26.692,13.571 26.913 C 13.260 27.208,12.333 28.459,12.333 28.583 C 12.333 28.649,12.108 28.986,11.833 29.333 C 11.558 29.681,11.333 30.048,11.333 30.149 C 11.333 30.250,11.221 30.333,11.083 30.333 C 10.946 30.333,10.833 30.474,10.833 30.646 C 10.833 30.818,10.721 31.053,10.583 31.167 C 10.446 31.281,10.333 31.477,10.333 31.604 C 10.333 31.730,10.221 31.833,10.083 31.833 C 9.917 31.833,9.833 32.000,9.833 32.333 C 9.833 32.667,9.750 32.833,9.583 32.833 C 9.446 32.833,9.333 32.974,9.333 33.146 C 9.333 33.318,9.221 33.553,9.083 33.667 C 8.946 33.781,8.833 33.977,8.833 34.104 C 8.833 34.230,8.721 34.333,8.583 34.333 C 8.417 34.333,8.333 34.500,8.333 34.833 C 8.333 35.167,8.250 35.333,8.083 35.333 C 7.917 35.333,7.833 35.500,7.833 35.833 C 7.833 36.167,7.750 36.333,7.583 36.333 C 7.417 36.333,7.333 36.500,7.333 36.833 C 7.333 37.167,7.250 37.333,7.083 37.333 C 6.946 37.333,6.833 37.474,6.833 37.646 C 6.833 37.818,6.721 38.053,6.583 38.167 C 6.446 38.281,6.333 38.590,6.333 38.854 C 6.333 39.169,6.248 39.333,6.083 39.333 C 5.917 39.333,5.833 39.500,5.833 39.833 C 5.833 40.167,5.750 40.333,5.583 40.333 C 5.417 40.333,5.333 40.500,5.333 40.833 C 5.333 41.167,5.250 41.333,5.083 41.333 C 4.917 41.333,4.833 41.500,4.833 41.833 C 4.833 42.167,4.750 42.333,4.583 42.333 C 4.398 42.333,4.333 42.528,4.333 43.083 C 4.333 43.639,4.269 43.833,4.083 43.833 C 3.919 43.833,3.833 43.998,3.833 44.316 C 3.833 44.590,3.726 44.839,3.583 44.894 C 3.418 44.957,3.333 45.218,3.333 45.661 C 3.333 46.148,3.264 46.333,3.083 46.333 C 2.910 46.333,2.833 46.507,2.833 46.896 C 2.833 47.206,2.721 47.553,2.583 47.667 C 2.446 47.781,2.333 48.118,2.333 48.417 C 2.333 48.715,2.221 49.053,2.083 49.167 C 1.933 49.292,1.833 49.657,1.833 50.086 C 1.833 50.565,1.752 50.829,1.583 50.894 C 1.404 50.963,1.333 51.244,1.333 51.894 C 1.333 52.543,1.263 52.825,1.083 52.894 C 0.904 52.963,0.833 53.243,0.833 53.891 C 0.833 54.489,0.749 54.862,0.583 55.000 C 0.409 55.145,0.333 55.529,0.333 56.270 C 0.333 56.868,0.260 57.333,0.167 57.333 C 0.057 57.333,0.000 61.500,0.000 69.500 C 0.000 77.500,0.057 81.667,0.167 81.667 C 0.260 81.667,0.333 82.132,0.333 82.730 C 0.333 83.471,0.409 83.855,0.583 84.000 C 0.749 84.138,0.833 84.511,0.833 85.109 C 0.833 85.757,0.904 86.037,1.083 86.106 C 1.263 86.175,1.333 86.457,1.333 87.106 C 1.333 87.756,1.404 88.037,1.583 88.106 C 1.752 88.171,1.833 88.435,1.833 88.914 C 1.833 89.343,1.933 89.708,2.083 89.833 C 2.221 89.947,2.333 90.285,2.333 90.583 C 2.333 90.882,2.446 91.219,2.583 91.333 C 2.721 91.447,2.833 91.794,2.833 92.104 C 2.833 92.493,2.910 92.667,3.083 92.667 C 3.264 92.667,3.333 92.852,3.333 93.339 C 3.333 93.782,3.418 94.043,3.583 94.106 C 3.726 94.161,3.833 94.410,3.833 94.684 C 3.833 95.002,3.919 95.167,4.083 95.167 C 4.269 95.167,4.333 95.361,4.333 95.917 C 4.333 96.472,4.398 96.667,4.583 96.667 C 4.750 96.667,4.833 96.833,4.833 97.167 C 4.833 97.500,4.917 97.667,5.083 97.667 C 5.250 97.667,5.333 97.833,5.333 98.167 C 5.333 98.500,5.417 98.667,5.583 98.667 C 5.750 98.667,5.833 98.833,5.833 99.167 C 5.833 99.500,5.917 99.667,6.083 99.667 C 6.248 99.667,6.333 99.831,6.333 100.146 C 6.333 100.410,6.446 100.719,6.583 100.833 C 6.721 100.947,6.833 101.182,6.833 101.354 C 6.833 101.526,6.946 101.667,7.083 101.667 C 7.250 101.667,7.333 101.833,7.333 102.167 C 7.333 102.500,7.417 102.667,7.583 102.667 C 7.750 102.667,7.833 102.833,7.833 103.167 C 7.833 103.500,7.917 103.667,8.083 103.667 C 8.250 103.667,8.333 103.833,8.333 104.167 C 8.333 104.500,8.417 104.667,8.583 104.667 C 8.721 104.667,8.833 104.770,8.833 104.896 C 8.833 105.023,8.946 105.219,9.083 105.333 C 9.221 105.447,9.333 105.682,9.333 105.854 C 9.333 106.026,9.446 106.167,9.583 106.167 C 9.750 106.167,9.833 106.333,9.833 106.667 C 9.833 107.000,9.917 107.167,10.083 107.167 C 10.221 107.167,10.333 107.270,10.333 107.396 C 10.333 107.523,10.446 107.719,10.583 107.833 C 10.721 107.947,10.833 108.182,10.833 108.354 C 10.833 108.526,10.946 108.667,11.083 108.667 C 11.221 108.667,11.333 108.750,11.333 108.851 C 11.333 108.952,11.558 109.319,11.833 109.667 C 12.108 110.014,12.333 110.351,12.333 110.417 C 12.333 110.541,13.260 111.792,13.571 112.087 C 13.803 112.308,14.125 112.819,14.330 113.292 C 14.419 113.498,14.569 113.667,14.663 113.667 C 14.756 113.667,14.833 113.779,14.833 113.917 C 14.833 114.054,14.946 114.167,15.083 114.167 C 15.221 114.167,15.333 114.279,15.333 114.417 C 15.333 114.554,15.446 114.667,15.583 114.667 C 15.721 114.667,15.833 114.779,15.833 114.917 C 15.833 115.054,15.928 115.167,16.044 115.167 C 16.160 115.167,16.328 115.335,16.419 115.542 C 16.509 115.748,16.752 115.991,16.958 116.081 C 17.217 116.195,17.333 116.389,17.333 116.706 C 17.333 116.959,17.408 117.167,17.500 117.167 C 17.716 117.167,18.333 117.784,18.333 118.000 C 18.333 118.092,18.446 118.167,18.583 118.167 C 18.721 118.167,18.833 118.279,18.833 118.417 C 18.833 118.554,18.946 118.667,19.083 118.667 C 19.221 118.667,19.333 118.779,19.333 118.917 C 19.333 119.054,19.446 119.167,19.583 119.167 C 19.721 119.167,19.833 119.279,19.833 119.417 C 19.833 119.554,19.946 119.667,20.083 119.667 C 20.221 119.667,20.333 119.779,20.333 119.917 C 20.333 120.054,20.446 120.167,20.583 120.167 C 20.721 120.167,20.833 120.279,20.833 120.417 C 20.833 120.554,20.946 120.667,21.083 120.667 C 21.221 120.667,21.333 120.779,21.333 120.917 C 21.333 121.054,21.446 121.167,21.583 121.167 C 21.721 121.167,21.833 121.279,21.833 121.417 C 21.833 121.554,21.978 121.667,22.155 121.667 C 22.332 121.667,22.638 121.892,22.833 122.167 C 23.029 122.442,23.334 122.667,23.511 122.667 C 23.688 122.667,23.833 122.779,23.833 122.917 C 23.833 123.054,23.946 123.167,24.083 123.167 C 24.221 123.167,24.333 123.279,24.333 123.417 C 24.333 123.554,24.446 123.667,24.583 123.667 C 24.721 123.667,24.833 123.779,24.833 123.917 C 24.833 124.054,24.946 124.167,25.083 124.167 C 25.221 124.167,25.333 124.244,25.333 124.337 C 25.333 124.431,25.502 124.581,25.708 124.670 C 26.213 124.889,26.611 125.161,27.226 125.708 C 27.509 125.960,27.874 126.167,28.037 126.167 C 28.200 126.167,28.333 126.279,28.333 126.417 C 28.333 126.554,28.438 126.667,28.566 126.667 C 28.693 126.667,28.841 126.779,28.894 126.917 C 28.946 127.054,29.179 127.167,29.411 127.167 C 29.675 127.167,29.833 127.260,29.833 127.417 C 29.833 127.554,29.946 127.667,30.083 127.667 C 30.221 127.667,30.333 127.779,30.333 127.917 C 30.333 128.083,30.500 128.167,30.833 128.167 C 31.167 128.167,31.333 128.250,31.333 128.417 C 31.333 128.554,31.438 128.667,31.566 128.667 C 31.693 128.667,31.841 128.779,31.894 128.917 C 31.946 129.054,32.179 129.167,32.411 129.167 C 32.675 129.167,32.833 129.260,32.833 129.417 C 32.833 129.583,33.000 129.667,33.333 129.667 C 33.667 129.667,33.833 129.750,33.833 129.917 C 33.833 130.054,33.938 130.167,34.066 130.167 C 34.193 130.167,34.341 130.279,34.394 130.417 C 34.446 130.554,34.679 130.667,34.911 130.667 C 35.175 130.667,35.333 130.760,35.333 130.917 C 35.333 131.083,35.500 131.167,35.833 131.167 C 36.167 131.167,36.333 131.250,36.333 131.417 C 36.333 131.583,36.500 131.667,36.833 131.667 C 37.167 131.667,37.333 131.750,37.333 131.917 C 37.333 132.083,37.500 132.167,37.833 132.167 C 38.167 132.167,38.333 132.250,38.333 132.417 C 38.333 132.583,38.500 132.667,38.833 132.667 C 39.167 132.667,39.333 132.750,39.333 132.917 C 39.333 133.083,39.500 133.167,39.833 133.167 C 40.167 133.167,40.333 133.250,40.333 133.417 C 40.333 133.583,40.500 133.667,40.833 133.667 C 41.167 133.667,41.333 133.750,41.333 133.917 C 41.333 134.081,41.498 134.167,41.816 134.167 C 42.090 134.167,42.339 134.274,42.394 134.417 C 42.457 134.582,42.718 134.667,43.161 134.667 C 43.648 134.667,43.833 134.736,43.833 134.917 C 43.833 135.083,44.000 135.167,44.333 135.167 C 44.667 135.167,44.833 135.250,44.833 135.417 C 44.833 135.602,45.028 135.667,45.583 135.667 C 46.139 135.667,46.333 135.731,46.333 135.917 C 46.333 136.102,46.528 136.167,47.083 136.167 C 47.639 136.167,47.833 136.231,47.833 136.417 C 47.833 136.602,48.028 136.667,48.583 136.667 C 49.139 136.667,49.333 136.731,49.333 136.917 C 49.333 137.101,49.526 137.167,50.066 137.167 C 50.563 137.167,50.828 137.247,50.894 137.417 C 50.963 137.597,51.246 137.667,51.911 137.667 C 52.620 137.667,52.833 137.725,52.833 137.917 C 52.833 138.111,53.054 138.167,53.816 138.167 C 54.535 138.167,54.823 138.234,54.894 138.417 C 54.966 138.606,55.273 138.667,56.161 138.667 C 56.832 138.667,57.333 138.738,57.333 138.833 C 57.333 138.943,61.556 139.000,69.667 139.000 C 77.778 139.000,82.000 138.943,82.000 138.833 C 82.000 138.738,82.493 138.667,83.146 138.667 C 83.962 138.667,84.352 138.595,84.500 138.417 C 84.641 138.246,85.020 138.167,85.687 138.167 C 86.447 138.167,86.667 138.111,86.667 137.917 C 86.667 137.725,86.880 137.667,87.589 137.667 C 88.254 137.667,88.537 137.597,88.606 137.417 C 88.672 137.247,88.937 137.167,89.434 137.167 C 89.974 137.167,90.167 137.101,90.167 136.917 C 90.167 136.731,90.361 136.667,90.917 136.667 C 91.472 136.667,91.667 136.602,91.667 136.417 C 91.667 136.231,91.861 136.167,92.417 136.167 C 92.972 136.167,93.167 136.102,93.167 135.917 C 93.167 135.731,93.361 135.667,93.917 135.667 C 94.472 135.667,94.667 135.602,94.667 135.417 C 94.667 135.250,94.833 135.167,95.167 135.167 C 95.500 135.167,95.667 135.083,95.667 134.917 C 95.667 134.736,95.852 134.667,96.339 134.667 C 96.782 134.667,97.043 134.582,97.106 134.417 C 97.161 134.274,97.410 134.167,97.684 134.167 C 98.002 134.167,98.167 134.081,98.167 133.917 C 98.167 133.750,98.333 133.667,98.667 133.667 C 99.000 133.667,99.167 133.583,99.167 133.417 C 99.167 133.250,99.333 133.167,99.667 133.167 C 100.000 133.167,100.167 133.083,100.167 132.917 C 100.167 132.750,100.333 132.667,100.667 132.667 C 101.000 132.667,101.167 132.583,101.167 132.417 C 101.167 132.250,101.333 132.167,101.667 132.167 C 102.000 132.167,102.167 132.083,102.167 131.917 C 102.167 131.779,102.279 131.667,102.417 131.667 C 102.554 131.667,102.667 131.554,102.667 131.417 C 102.667 131.250,102.833 131.167,103.167 131.167 C 103.500 131.167,103.667 131.083,103.667 130.917 C 103.667 130.750,103.833 130.667,104.167 130.667 C 104.500 130.667,104.667 130.583,104.667 130.417 C 104.667 130.279,104.779 130.167,104.917 130.167 C 105.054 130.167,105.167 130.054,105.167 129.917 C 105.167 129.750,105.333 129.667,105.667 129.667 C 106.000 129.667,106.167 129.583,106.167 129.417 C 106.167 129.260,106.325 129.167,106.589 129.167 C 106.821 129.167,107.054 129.054,107.106 128.917 C 107.159 128.779,107.307 128.667,107.434 128.667 C 107.562 128.667,107.667 128.554,107.667 128.417 C 107.667 128.279,107.779 128.167,107.917 128.167 C 108.054 128.167,108.167 128.054,108.167 127.917 C 108.167 127.750,108.333 127.667,108.667 127.667 C 109.000 127.667,109.167 127.583,109.167 127.417 C 109.167 127.279,109.279 127.167,109.417 127.167 C 109.554 127.167,109.667 127.054,109.667 126.917 C 109.667 126.760,109.825 126.667,110.089 126.667 C 110.321 126.667,110.554 126.554,110.606 126.417 C 110.659 126.279,110.807 126.167,110.934 126.167 C 111.062 126.167,111.167 126.063,111.167 125.936 C 111.167 125.809,111.298 125.657,111.458 125.599 C 112.025 125.391,112.667 124.980,112.667 124.824 C 112.667 124.738,112.779 124.667,112.917 124.667 C 113.054 124.667,113.167 124.554,113.167 124.417 C 113.167 124.279,113.265 124.167,113.386 124.167 C 113.952 124.167,118.167 119.927,118.167 119.358 C 118.167 119.253,118.279 119.167,118.417 119.167 C 118.554 119.167,118.667 119.054,118.667 118.917 C 118.667 118.779,118.779 118.667,118.917 118.667 C 119.054 118.667,119.167 118.554,119.167 118.417 C 119.167 118.279,119.279 118.167,119.417 118.167 C 119.554 118.167,119.667 118.054,119.667 117.917 C 119.667 117.779,119.779 117.667,119.917 117.667 C 120.054 117.667,120.167 117.554,120.167 117.417 C 120.167 117.279,120.279 117.167,120.417 117.167 C 120.554 117.167,120.667 117.054,120.667 116.917 C 120.667 116.779,120.779 116.667,120.917 116.667 C 121.054 116.667,121.167 116.531,121.167 116.365 C 121.167 116.198,121.392 115.847,121.667 115.583 C 121.942 115.320,122.167 115.006,122.167 114.885 C 122.167 114.765,122.279 114.667,122.417 114.667 C 122.554 114.667,122.667 114.554,122.667 114.417 C 122.667 114.279,122.779 114.167,122.917 114.167 C 123.054 114.167,123.167 114.054,123.167 113.917 C 123.167 113.779,123.279 113.667,123.417 113.667 C 123.583 113.667,123.667 113.500,123.667 113.167 C 123.667 112.833,123.750 112.667,123.917 112.667 C 124.054 112.667,124.167 112.554,124.167 112.417 C 124.167 112.279,124.279 112.167,124.417 112.167 C 124.554 112.167,124.667 112.054,124.667 111.917 C 124.667 111.779,124.779 111.667,124.917 111.667 C 125.054 111.667,125.167 111.531,125.167 111.365 C 125.167 111.198,125.392 110.847,125.667 110.583 C 125.942 110.320,126.167 110.006,126.167 109.885 C 126.167 109.765,126.279 109.667,126.417 109.667 C 126.554 109.667,126.667 109.554,126.667 109.417 C 126.667 109.279,126.744 109.167,126.837 109.167 C 126.931 109.167,127.081 108.998,127.170 108.792 C 127.381 108.305,127.713 107.777,127.890 107.648 C 128.059 107.524,128.454 106.862,128.600 106.458 C 128.658 106.298,128.809 106.167,128.936 106.167 C 129.081 106.167,129.167 105.981,129.167 105.667 C 129.167 105.333,129.250 105.167,129.417 105.167 C 129.554 105.167,129.667 105.062,129.667 104.934 C 129.667 104.807,129.779 104.659,129.917 104.606 C 130.466 104.396,130.246 102.833,129.667 102.833 C 129.333 102.833,129.167 102.750,129.167 102.583 C 129.167 102.417,129.000 102.333,128.667 102.333 C 128.333 102.333,128.167 102.250,128.167 102.083 C 128.167 101.917,128.000 101.833,127.667 101.833 C 127.333 101.833,127.167 101.750,127.167 101.583 C 127.167 101.417,127.000 101.333,126.667 101.333 C 126.333 101.333,126.167 101.250,126.167 101.083 C 126.167 100.917,126.000 100.833,125.667 100.833 C 125.333 100.833,125.167 100.750,125.167 100.583 C 125.167 100.410,124.993 100.333,124.604 100.333 C 124.294 100.333,123.947 100.221,123.833 100.083 C 123.719 99.946,123.410 99.833,123.146 99.833 C 122.831 99.833,122.667 99.748,122.667 99.583 C 122.667 99.417,122.500 99.333,122.167 99.333 C 121.833 99.333,121.667 99.250,121.667 99.083 C 121.667 98.917,121.500 98.833,121.167 98.833 C 120.833 98.833,120.667 98.750,120.667 98.583 C 120.667 98.417,120.500 98.333,120.167 98.333 C 119.833 98.333,119.667 98.250,119.667 98.083 C 119.667 97.917,119.500 97.833,119.167 97.833 C 118.833 97.833,118.667 97.750,118.667 97.583 C 118.667 97.417,118.500 97.333,118.167 97.333 C 117.833 97.333,117.667 97.250,117.667 97.083 C 117.667 96.917,117.500 96.833,117.167 96.833 C 116.833 96.833,116.667 96.750,116.667 96.583 C 116.667 96.410,116.493 96.333,116.104 96.333 C 115.794 96.333,115.447 96.221,115.333 96.083 C 115.219 95.946,114.994 95.833,114.833 95.833 C 114.672 95.833,114.447 95.721,114.333 95.583 C 114.219 95.446,113.994 95.333,113.833 95.333 C 113.672 95.333,113.447 95.221,113.333 95.083 C 113.219 94.946,112.910 94.833,112.646 94.833 C 112.331 94.833,112.167 94.748,112.167 94.583 C 112.167 94.417,112.000 94.333,111.667 94.333 C 111.333 94.333,111.167 94.250,111.167 94.083 C 111.167 93.917,111.000 93.833,110.667 93.833 C 110.333 93.833,110.167 93.750,110.167 93.583 C 110.167 93.417,110.000 93.333,109.667 93.333 C 109.333 93.333,109.167 93.250,109.167 93.083 C 109.167 92.919,109.002 92.833,108.684 92.833 C 108.410 92.833,108.161 92.726,108.106 92.583 C 108.054 92.446,107.830 92.333,107.609 92.333 C 107.388 92.333,107.114 92.221,107.000 92.083 C 106.886 91.946,106.623 91.833,106.417 91.833 C 106.210 91.833,105.947 91.721,105.833 91.583 C 105.719 91.446,105.494 91.333,105.333 91.333 C 105.172 91.333,104.947 91.221,104.833 91.083 C 104.719 90.946,104.419 90.833,104.167 90.833 C 103.914 90.833,103.614 90.721,103.500 90.583 C 103.386 90.446,103.123 90.333,102.917 90.333 C 102.710 90.333,102.458 90.233,102.356 90.110 C 102.177 89.895,99.506 89.392,99.000 89.479 C 98.474 89.570,97.833 89.924,97.833 90.124 C 97.833 90.239,97.721 90.333,97.583 90.333 C 97.446 90.333,97.333 90.398,97.333 90.478 C 97.333 90.624,96.271 91.832,94.375 93.840 C 93.802 94.447,93.333 95.031,93.333 95.138 C 93.333 95.246,93.256 95.333,93.162 95.333 C 92.937 95.333,91.333 96.533,91.333 96.702 C 91.333 96.774,91.221 96.833,91.083 96.833 C 90.946 96.833,90.833 96.946,90.833 97.083 C 90.833 97.221,90.721 97.333,90.583 97.333 C 90.446 97.333,90.333 97.446,90.333 97.583 C 90.333 97.721,90.221 97.833,90.083 97.833 C 89.946 97.833,89.833 97.946,89.833 98.083 C 89.833 98.250,89.667 98.333,89.333 98.333 C 89.000 98.333,88.833 98.417,88.833 98.583 C 88.833 98.721,88.721 98.833,88.583 98.833 C 88.446 98.833,88.333 98.946,88.333 99.083 C 88.333 99.250,88.167 99.333,87.833 99.333 C 87.500 99.333,87.333 99.417,87.333 99.583 C 87.333 99.721,87.221 99.833,87.083 99.833 C 86.946 99.833,86.833 99.946,86.833 100.083 C 86.833 100.250,86.667 100.333,86.333 100.333 C 86.000 100.333,85.833 100.417,85.833 100.583 C 85.833 100.750,85.667 100.833,85.333 100.833 C 85.000 100.833,84.833 100.917,84.833 101.083 C 84.833 101.250,84.667 101.333,84.333 101.333 C 84.000 101.333,83.833 101.417,83.833 101.583 C 83.833 101.756,83.660 101.833,83.270 101.833 C 82.961 101.833,82.614 101.946,82.500 102.083 C 82.386 102.221,82.077 102.333,81.813 102.333 C 81.498 102.333,81.333 102.419,81.333 102.583 C 81.333 102.769,81.139 102.833,80.583 102.833 C 80.028 102.833,79.833 102.898,79.833 103.083 C 79.833 103.267,79.641 103.333,79.104 103.333 C 78.659 103.333,78.293 103.431,78.167 103.583 C 78.030 103.748,77.659 103.833,77.083 103.833 C 76.508 103.833,76.136 103.919,76.000 104.083 C 75.850 104.264,75.453 104.333,74.563 104.333 C 73.581 104.333,73.333 104.384,73.333 104.583 C 73.333 104.798,72.796 104.833,69.500 104.833 C 66.204 104.833,65.667 104.798,65.667 104.583 C 65.667 104.380,65.389 104.333,64.167 104.333 C 62.944 104.333,62.667 104.287,62.667 104.083 C 62.667 103.889,62.444 103.833,61.667 103.833 C 60.889 103.833,60.667 103.778,60.667 103.583 C 60.667 103.398,60.472 103.333,59.917 103.333 C 59.361 103.333,59.167 103.269,59.167 103.083 C 59.167 102.898,58.972 102.833,58.417 102.833 C 57.861 102.833,57.667 102.769,57.667 102.583 C 57.667 102.398,57.472 102.333,56.917 102.333 C 56.361 102.333,56.167 102.269,56.167 102.083 C 56.167 101.917,56.000 101.833,55.667 101.833 C 55.333 101.833,55.167 101.750,55.167 101.583 C 55.167 101.417,55.000 101.333,54.667 101.333 C 54.333 101.333,54.167 101.250,54.167 101.083 C 54.167 100.917,54.000 100.833,53.667 100.833 C 53.333 100.833,53.167 100.750,53.167 100.583 C 53.167 100.417,53.000 100.333,52.667 100.333 C 52.333 100.333,52.167 100.250,52.167 100.083 C 52.167 99.946,52.054 99.833,51.917 99.833 C 51.779 99.833,51.667 99.721,51.667 99.583 C 51.667 99.417,51.500 99.333,51.167 99.333 C 50.833 99.333,50.667 99.250,50.667 99.083 C 50.667 98.946,50.562 98.833,50.434 98.833 C 50.307 98.833,50.159 98.721,50.106 98.583 C 50.054 98.446,49.821 98.333,49.589 98.333 C 49.325 98.333,49.167 98.240,49.167 98.083 C 49.167 97.946,49.054 97.833,48.917 97.833 C 48.779 97.833,48.667 97.721,48.667 97.583 C 48.667 97.446,48.562 97.333,48.434 97.333 C 48.307 97.333,48.159 97.221,48.106 97.083 C 48.054 96.946,47.821 96.833,47.589 96.833 C 47.325 96.833,47.167 96.740,47.167 96.583 C 47.167 96.446,47.054 96.333,46.917 96.333 C 46.779 96.333,46.667 96.221,46.667 96.083 C 46.667 95.946,46.554 95.833,46.417 95.833 C 46.279 95.833,46.167 95.721,46.167 95.583 C 46.167 95.446,46.054 95.333,45.917 95.333 C 45.779 95.333,45.667 95.221,45.667 95.083 C 45.667 94.946,45.554 94.833,45.417 94.833 C 45.279 94.833,45.167 94.721,45.167 94.583 C 45.167 94.446,45.054 94.333,44.917 94.333 C 44.779 94.333,44.667 94.221,44.667 94.083 C 44.667 93.946,44.554 93.833,44.417 93.833 C 44.279 93.833,44.167 93.747,44.167 93.641 C 44.167 93.535,43.810 93.062,43.375 92.588 C 42.214 91.327,41.667 90.652,41.667 90.483 C 41.667 90.401,41.554 90.333,41.417 90.333 C 41.279 90.333,41.167 90.221,41.167 90.083 C 41.167 89.946,41.054 89.833,40.917 89.833 C 40.750 89.833,40.667 89.667,40.667 89.333 C 40.667 89.000,40.583 88.833,40.417 88.833 C 40.279 88.833,40.167 88.721,40.167 88.583 C 40.167 88.446,40.054 88.333,39.917 88.333 C 39.750 88.333,39.667 88.167,39.667 87.833 C 39.667 87.500,39.583 87.333,39.417 87.333 C 39.279 87.333,39.167 87.230,39.167 87.104 C 39.167 86.977,39.054 86.781,38.917 86.667 C 38.779 86.553,38.667 86.318,38.667 86.146 C 38.667 85.974,38.554 85.833,38.417 85.833 C 38.250 85.833,38.167 85.667,38.167 85.333 C 38.167 85.000,38.083 84.833,37.917 84.833 C 37.744 84.833,37.667 84.660,37.667 84.270 C 37.667 83.961,37.554 83.614,37.417 83.500 C 37.279 83.386,37.167 83.077,37.167 82.813 C 37.167 82.498,37.081 82.333,36.917 82.333 C 36.750 82.333,36.667 82.167,36.667 81.833 C 36.667 81.500,36.583 81.333,36.417 81.333 C 36.231 81.333,36.167 81.139,36.167 80.583 C 36.167 80.028,36.102 79.833,35.917 79.833 C 35.729 79.833,35.667 79.632,35.667 79.020 C 35.667 78.501,35.576 78.133,35.417 78.000 C 35.266 77.875,35.167 77.510,35.167 77.083 C 35.167 76.656,35.067 76.292,34.917 76.167 C 34.729 76.011,34.667 75.591,34.667 74.474 C 34.667 73.308,34.613 72.969,34.417 72.894 C 34.206 72.813,34.167 72.278,34.167 69.500 C 34.167 66.722,34.206 66.187,34.417 66.106 C 34.613 66.031,34.667 65.692,34.667 64.526 C 34.667 63.409,34.729 62.989,34.917 62.833 C 35.067 62.708,35.167 62.344,35.167 61.917 C 35.167 61.490,35.266 61.125,35.417 61.000 C 35.576 60.867,35.667 60.499,35.667 59.980 C 35.667 59.368,35.729 59.167,35.917 59.167 C 36.102 59.167,36.167 58.972,36.167 58.417 C 36.167 57.861,36.231 57.667,36.417 57.667 C 36.583 57.667,36.667 57.500,36.667 57.167 C 36.667 56.833,36.750 56.667,36.917 56.667 C 37.081 56.667,37.167 56.502,37.167 56.187 C 37.167 55.923,37.279 55.614,37.417 55.500 C 37.554 55.386,37.667 55.039,37.667 54.730 C 37.667 54.340,37.744 54.167,37.917 54.167 C 38.083 54.167,38.167 54.000,38.167 53.667 C 38.167 53.333,38.250 53.167,38.417 53.167 C 38.554 53.167,38.667 53.026,38.667 52.854 C 38.667 52.682,38.779 52.447,38.917 52.333 C 39.054 52.219,39.167 52.023,39.167 51.896 C 39.167 51.770,39.279 51.667,39.417 51.667 C 39.583 51.667,39.667 51.500,39.667 51.167 C 39.667 50.833,39.750 50.667,39.917 50.667 C 40.054 50.667,40.167 50.554,40.167 50.417 C 40.167 50.279,40.279 50.167,40.417 50.167 C 40.583 50.167,40.667 50.000,40.667 49.667 C 40.667 49.333,40.750 49.167,40.917 49.167 C 41.054 49.167,41.167 49.054,41.167 48.917 C 41.167 48.779,41.279 48.667,41.417 48.667 C 41.554 48.667,41.667 48.599,41.667 48.517 C 41.667 48.348,42.214 47.673,43.375 46.412 C 43.810 45.938,44.167 45.465,44.167 45.359 C 44.167 45.253,44.279 45.167,44.417 45.167 C 44.554 45.167,44.667 45.054,44.667 44.917 C 44.667 44.779,44.779 44.667,44.917 44.667 C 45.054 44.667,45.167 44.554,45.167 44.417 C 45.167 44.279,45.279 44.167,45.417 44.167 C 45.554 44.167,45.667 44.054,45.667 43.917 C 45.667 43.779,45.779 43.667,45.917 43.667 C 46.054 43.667,46.167 43.554,46.167 43.417 C 46.167 43.279,46.279 43.167,46.417 43.167 C 46.554 43.167,46.667 43.054,46.667 42.917 C 46.667 42.779,46.779 42.667,46.917 42.667 C 47.054 42.667,47.167 42.554,47.167 42.417 C 47.167 42.260,47.325 42.167,47.589 42.167 C 47.821 42.167,48.054 42.054,48.106 41.917 C 48.159 41.779,48.307 41.667,48.434 41.667 C 48.562 41.667,48.667 41.554,48.667 41.417 C 48.667 41.279,48.779 41.167,48.917 41.167 C 49.054 41.167,49.167 41.054,49.167 40.917 C 49.167 40.760,49.325 40.667,49.589 40.667 C 49.821 40.667,50.054 40.554,50.106 40.417 C 50.159 40.279,50.307 40.167,50.434 40.167 C 50.562 40.167,50.667 40.054,50.667 39.917 C 50.667 39.750,50.833 39.667,51.167 39.667 C 51.500 39.667,51.667 39.583,51.667 39.417 C 51.667 39.279,51.779 39.167,51.917 39.167 C 52.054 39.167,52.167 39.054,52.167 38.917 C 52.167 38.750,52.333 38.667,52.667 38.667 C 53.000 38.667,53.167 38.583,53.167 38.417 C 53.167 38.250,53.333 38.167,53.667 38.167 C 54.000 38.167,54.167 38.083,54.167 37.917 C 54.167 37.750,54.333 37.667,54.667 37.667 C 55.000 37.667,55.167 37.583,55.167 37.417 C 55.167 37.250,55.333 37.167,55.667 37.167 C 56.000 37.167,56.167 37.083,56.167 36.917 C 56.167 36.731,56.361 36.667,56.917 36.667 C 57.472 36.667,57.667 36.602,57.667 36.417 C 57.667 36.231,57.861 36.167,58.417 36.167 C 58.972 36.167,59.167 36.102,59.167 35.917 C 59.167 35.731,59.361 35.667,59.917 35.667 C 60.472 35.667,60.667 35.602,60.667 35.417 C 60.667 35.222,60.889 35.167,61.667 35.167 C 62.444 35.167,62.667 35.111,62.667 34.917 C 62.667 34.713,62.944 34.667,64.167 34.667 C 65.389 34.667,65.667 34.620,65.667 34.417 C 65.667 34.202,66.204 34.167,69.500 34.167 C 72.796 34.167,73.333 34.202,73.333 34.417 C 73.333 34.620,73.611 34.667,74.833 34.667 C 76.056 34.667,76.333 34.713,76.333 34.917 C 76.333 35.105,76.535 35.167,77.146 35.167 C 77.666 35.167,78.034 35.257,78.167 35.417 C 78.293 35.569,78.659 35.667,79.104 35.667 C 79.641 35.667,79.833 35.733,79.833 35.917 C 79.833 36.102,80.028 36.167,80.583 36.167 C 81.139 36.167,81.333 36.231,81.333 36.417 C 81.333 36.581,81.498 36.667,81.813 36.667 C 82.077 36.667,82.386 36.779,82.500 36.917 C 82.614 37.054,82.961 37.167,83.270 37.167 C 83.660 37.167,83.833 37.244,83.833 37.417 C 83.833 37.583,84.000 37.667,84.333 37.667 C 84.667 37.667,84.833 37.750,84.833 37.917 C 84.833 38.083,85.000 38.167,85.333 38.167 C 85.667 38.167,85.833 38.250,85.833 38.417 C 85.833 38.583,86.000 38.667,86.333 38.667 C 86.667 38.667,86.833 38.750,86.833 38.917 C 86.833 39.054,86.946 39.167,87.083 39.167 C 87.221 39.167,87.333 39.279,87.333 39.417 C 87.333 39.583,87.500 39.667,87.833 39.667 C 88.167 39.667,88.333 39.750,88.333 39.917 C 88.333 40.054,88.446 40.167,88.583 40.167 C 88.721 40.167,88.833 40.279,88.833 40.417 C 88.833 40.583,89.000 40.667,89.333 40.667 C 89.667 40.667,89.833 40.750,89.833 40.917 C 89.833 41.054,89.946 41.167,90.083 41.167 C 90.221 41.167,90.333 41.279,90.333 41.417 C 90.333 41.554,90.446 41.667,90.583 41.667 C 90.721 41.667,90.833 41.779,90.833 41.917 C 90.833 42.054,90.946 42.167,91.083 42.167 C 91.221 42.167,91.333 42.226,91.333 42.298 C 91.333 42.467,92.937 43.667,93.162 43.667 C 93.256 43.667,93.333 43.754,93.333 43.862 C 93.333 43.969,93.802 44.553,94.375 45.160 C 96.271 47.168,97.333 48.376,97.333 48.522 C 97.333 48.602,97.446 48.667,97.583 48.667 C 97.721 48.667,97.833 48.761,97.833 48.876 C 97.833 49.076,98.474 49.430,99.000 49.521 C 99.506 49.608,102.177 49.105,102.356 48.890 C 102.458 48.767,102.710 48.667,102.917 48.667 C 103.123 48.667,103.386 48.554,103.500 48.417 C 103.614 48.279,103.914 48.167,104.167 48.167 C 104.419 48.167,104.719 48.054,104.833 47.917 C 104.947 47.779,105.210 47.667,105.417 47.667 C 105.623 47.667,105.886 47.554,106.000 47.417 C 106.114 47.279,106.388 47.167,106.609 47.167 C 106.830 47.167,107.054 47.054,107.106 46.917 C 107.161 46.774,107.410 46.667,107.684 46.667 C 108.002 46.667,108.167 46.581,108.167 46.417 C 108.167 46.250,108.333 46.167,108.667 46.167 C 109.000 46.167,109.167 46.083,109.167 45.917 C 109.167 45.752,109.331 45.667,109.646 45.667 C 109.910 45.667,110.219 45.554,110.333 45.417 C 110.447 45.279,110.672 45.167,110.833 45.167 C 110.994 45.167,111.219 45.054,111.333 44.917 C 111.447 44.779,111.759 44.667,112.026 44.667 C 112.303 44.667,112.552 44.560,112.606 44.417 C 112.659 44.279,112.884 44.167,113.106 44.167 C 113.329 44.167,113.554 44.054,113.606 43.917 C 113.661 43.774,113.910 43.667,114.184 43.667 C 114.502 43.667,114.667 43.581,114.667 43.417 C 114.667 43.250,114.833 43.167,115.167 43.167 C 115.500 43.167,115.667 43.083,115.667 42.917 C 115.667 42.750,115.833 42.667,116.167 42.667 C 116.500 42.667,116.667 42.583,116.667 42.417 C 116.667 42.250,116.833 42.167,117.167 42.167 C 117.500 42.167,117.667 42.083,117.667 41.917 C 117.667 41.750,117.833 41.667,118.167 41.667 C 118.500 41.667,118.667 41.583,118.667 41.417 C 118.667 41.250,118.833 41.167,119.167 41.167 C 119.500 41.167,119.667 41.083,119.667 40.917 C 119.667 40.736,119.852 40.667,120.339 40.667 C 120.782 40.667,121.043 40.582,121.106 40.417 C 121.161 40.274,121.410 40.167,121.684 40.167 C 122.002 40.167,122.167 40.081,122.167 39.917 C 122.167 39.750,122.333 39.667,122.667 39.667 C 123.000 39.667,123.167 39.583,123.167 39.417 C 123.167 39.250,123.333 39.167,123.667 39.167 C 124.000 39.167,124.167 39.083,124.167 38.917 C 124.167 38.750,124.333 38.667,124.667 38.667 C 125.000 38.667,125.167 38.583,125.167 38.417 C 125.167 38.250,125.333 38.167,125.667 38.167 C 126.000 38.167,126.167 38.083,126.167 37.917 C 126.167 37.731,126.361 37.667,126.917 37.667 C 127.472 37.667,127.667 37.602,127.667 37.417 C 127.667 37.250,127.833 37.167,128.167 37.167 C 128.500 37.167,128.667 37.083,128.667 36.917 C 128.667 36.750,128.833 36.667,129.167 36.667 C 129.500 36.667,129.667 36.583,129.667 36.417 C 129.667 36.279,129.779 36.167,129.917 36.167 C 130.096 36.167,130.167 35.984,130.167 35.520 C 130.167 35.149,130.060 34.786,129.917 34.667 C 129.779 34.553,129.667 34.318,129.667 34.146 C 129.667 33.974,129.554 33.833,129.417 33.833 C 129.250 33.833,129.167 33.667,129.167 33.333 C 129.167 33.000,129.083 32.833,128.917 32.833 C 128.779 32.833,128.667 32.693,128.667 32.520 C 128.667 32.348,128.554 32.114,128.417 32.000 C 128.279 31.886,128.167 31.689,128.167 31.563 C 128.167 31.437,128.054 31.333,127.917 31.333 C 127.779 31.333,127.667 31.200,127.667 31.037 C 127.667 30.874,127.442 30.495,127.167 30.194 C 126.892 29.892,126.667 29.590,126.667 29.521 C 126.667 29.452,126.442 29.180,126.167 28.917 C 125.892 28.653,125.667 28.302,125.667 28.135 C 125.667 27.969,125.554 27.833,125.417 27.833 C 125.279 27.833,125.167 27.730,125.167 27.604 C 125.167 27.477,125.054 27.281,124.917 27.167 C 124.779 27.053,124.667 26.818,124.667 26.646 C 124.667 26.474,124.554 26.333,124.417 26.333 C 124.279 26.333,124.167 26.221,124.167 26.083 C 124.167 25.946,124.054 25.833,123.917 25.833 C 123.779 25.833,123.667 25.730,123.667 25.604 C 123.667 25.477,123.554 25.281,123.417 25.167 C 123.279 25.053,123.167 24.818,123.167 24.646 C 123.167 24.474,123.054 24.333,122.917 24.333 C 122.779 24.333,122.667 24.221,122.667 24.083 C 122.667 23.946,122.554 23.833,122.417 23.833 C 122.279 23.833,122.167 23.721,122.167 23.583 C 122.167 23.446,122.054 23.333,121.917 23.333 C 121.779 23.333,121.667 23.221,121.667 23.083 C 121.667 22.946,121.554 22.833,121.417 22.833 C 121.279 22.833,121.167 22.693,121.167 22.520 C 121.167 22.348,121.054 22.114,120.917 22.000 C 120.779 21.886,120.667 21.689,120.667 21.563 C 120.667 21.437,120.554 21.333,120.417 21.333 C 120.279 21.333,120.167 21.221,120.167 21.083 C 120.167 20.946,120.054 20.833,119.917 20.833 C 119.779 20.833,119.667 20.721,119.667 20.583 C 119.667 20.446,119.554 20.333,119.417 20.333 C 119.279 20.333,119.167 20.221,119.167 20.083 C 119.167 19.946,119.054 19.833,118.917 19.833 C 118.779 19.833,118.667 19.721,118.667 19.583 C 118.667 19.446,118.554 19.333,118.417 19.333 C 118.279 19.333,118.167 19.221,118.167 19.083 C 118.167 18.946,118.054 18.833,117.917 18.833 C 117.779 18.833,117.667 18.738,117.667 18.621 C 117.667 18.374,115.155 15.833,114.911 15.833 C 114.820 15.833,114.672 15.671,114.581 15.472 C 114.491 15.273,114.268 15.029,114.087 14.930 C 113.906 14.831,113.681 14.669,113.587 14.571 C 113.221 14.185,112.026 13.333,111.851 13.333 C 111.750 13.333,111.667 13.221,111.667 13.083 C 111.667 12.917,111.500 12.833,111.167 12.833 C 110.833 12.833,110.667 12.750,110.667 12.583 C 110.667 12.446,110.554 12.333,110.417 12.333 C 110.279 12.333,110.167 12.221,110.167 12.083 C 110.167 11.946,110.054 11.833,109.917 11.833 C 109.779 11.833,109.667 11.721,109.667 11.583 C 109.667 11.417,109.500 11.333,109.167 11.333 C 108.833 11.333,108.667 11.250,108.667 11.083 C 108.667 10.946,108.554 10.833,108.417 10.833 C 108.279 10.833,108.167 10.721,108.167 10.583 C 108.167 10.417,108.000 10.333,107.667 10.333 C 107.333 10.333,107.167 10.250,107.167 10.083 C 107.167 9.946,107.054 9.833,106.917 9.833 C 106.779 9.833,106.667 9.721,106.667 9.583 C 106.667 9.417,106.500 9.333,106.167 9.333 C 105.833 9.333,105.667 9.250,105.667 9.083 C 105.667 8.946,105.562 8.833,105.434 8.833 C 105.307 8.833,105.159 8.721,105.106 8.583 C 105.054 8.446,104.821 8.333,104.589 8.333 C 104.325 8.333,104.167 8.240,104.167 8.083 C 104.167 7.917,104.000 7.833,103.667 7.833 C 103.333 7.833,103.167 7.750,103.167 7.583 C 103.167 7.417,103.000 7.333,102.667 7.333 C 102.333 7.333,102.167 7.250,102.167 7.083 C 102.167 6.946,102.026 6.833,101.854 6.833 C 101.682 6.833,101.447 6.721,101.333 6.583 C 101.219 6.446,100.994 6.333,100.833 6.333 C 100.672 6.333,100.447 6.221,100.333 6.083 C 100.219 5.946,100.031 5.833,99.914 5.833 C 99.798 5.833,99.659 5.721,99.606 5.583 C 99.552 5.440,99.303 5.333,99.026 5.333 C 98.759 5.333,98.447 5.221,98.333 5.083 C 98.219 4.946,97.910 4.833,97.646 4.833 C 97.331 4.833,97.167 4.748,97.167 4.583 C 97.167 4.417,97.000 4.333,96.667 4.333 C 96.333 4.333,96.167 4.250,96.167 4.083 C 96.167 3.898,95.972 3.833,95.417 3.833 C 94.861 3.833,94.667 3.769,94.667 3.583 C 94.667 3.417,94.500 3.333,94.167 3.333 C 93.833 3.333,93.667 3.250,93.667 3.083 C 93.667 2.898,93.472 2.833,92.917 2.833 C 92.361 2.833,92.167 2.769,92.167 2.583 C 92.167 2.398,91.972 2.333,91.417 2.333 C 90.861 2.333,90.667 2.269,90.667 2.083 C 90.667 1.895,90.465 1.833,89.854 1.833 C 89.334 1.833,88.966 1.743,88.833 1.583 C 88.708 1.433,88.344 1.333,87.917 1.333 C 87.490 1.333,87.125 1.234,87.000 1.083 C 86.855 0.909,86.471 0.833,85.730 0.833 C 84.896 0.833,84.667 0.779,84.667 0.583 C 84.667 0.383,84.417 0.333,83.417 0.333 C 82.694 0.333,82.167 0.263,82.167 0.167 C 82.167 0.057,77.917 0.000,69.750 0.000 C 61.583 0.000,57.333 0.057,57.333 0.167 M162.500 45.583 C 162.346 45.769,161.933 45.833,160.891 45.833 C 159.799 45.833,159.468 45.889,159.394 46.083 C 159.327 46.257,159.056 46.333,158.503 46.333 C 157.999 46.333,157.631 46.425,157.500 46.583 C 157.386 46.721,157.048 46.833,156.750 46.833 C 156.452 46.833,156.114 46.946,156.000 47.083 C 155.886 47.221,155.612 47.333,155.391 47.333 C 155.170 47.333,154.946 47.446,154.894 47.583 C 154.841 47.721,154.616 47.833,154.394 47.833 C 154.171 47.833,153.946 47.946,153.894 48.083 C 153.841 48.221,153.702 48.333,153.586 48.333 C 153.469 48.333,153.281 48.446,153.167 48.583 C 153.053 48.721,152.818 48.833,152.646 48.833 C 152.474 48.833,152.333 48.946,152.333 49.083 C 152.333 49.221,152.230 49.333,152.104 49.333 C 151.977 49.333,151.781 49.446,151.667 49.583 C 151.553 49.721,151.318 49.833,151.146 49.833 C 150.974 49.833,150.833 49.946,150.833 50.083 C 150.833 50.221,150.721 50.333,150.583 50.333 C 150.446 50.333,150.333 50.446,150.333 50.583 C 150.333 50.721,150.221 50.833,150.083 50.833 C 149.946 50.833,149.833 50.946,149.833 51.083 C 149.833 51.221,149.721 51.333,149.583 51.333 C 149.446 51.333,149.333 51.446,149.333 51.583 C 149.333 51.721,149.221 51.833,149.083 51.833 C 148.946 51.833,148.833 51.946,148.833 52.083 C 148.833 52.221,148.721 52.333,148.583 52.333 C 148.446 52.333,148.333 52.446,148.333 52.583 C 148.333 52.721,148.221 52.833,148.083 52.833 C 147.946 52.833,147.833 52.922,147.833 53.031 C 147.833 53.140,147.533 53.584,147.167 54.019 C 146.800 54.454,146.500 54.916,146.500 55.046 C 146.500 55.176,146.350 55.417,146.167 55.583 C 145.982 55.750,145.833 56.097,145.833 56.359 C 145.833 56.670,145.747 56.833,145.583 56.833 C 145.417 56.833,145.333 57.000,145.333 57.333 C 145.333 57.667,145.250 57.833,145.083 57.833 C 144.898 57.833,144.833 58.028,144.833 58.583 C 144.833 59.139,144.769 59.333,144.583 59.333 C 144.398 59.333,144.333 59.528,144.333 60.083 C 144.333 60.639,144.269 60.833,144.083 60.833 C 143.887 60.833,143.833 61.063,143.833 61.896 C 143.833 62.638,143.758 63.022,143.583 63.167 C 143.372 63.342,143.333 64.094,143.333 68.020 C 143.333 72.039,143.367 72.667,143.583 72.667 C 143.783 72.667,143.833 72.917,143.833 73.917 C 143.833 74.917,143.883 75.167,144.083 75.167 C 144.267 75.167,144.333 75.359,144.333 75.896 C 144.333 76.341,144.431 76.707,144.583 76.833 C 144.721 76.947,144.833 77.259,144.833 77.526 C 144.833 77.803,144.940 78.052,145.083 78.106 C 145.221 78.159,145.333 78.384,145.333 78.606 C 145.333 78.829,145.446 79.054,145.583 79.106 C 145.721 79.159,145.833 79.390,145.833 79.619 C 145.833 79.848,146.047 80.309,146.309 80.643 C 146.571 80.977,146.815 81.336,146.851 81.441 C 147.039 81.988,149.613 84.654,149.958 84.660 C 150.178 84.664,150.333 84.770,150.333 84.917 C 150.333 85.054,150.446 85.167,150.583 85.167 C 150.721 85.167,150.833 85.279,150.833 85.417 C 150.833 85.554,150.938 85.667,151.066 85.667 C 151.193 85.667,151.341 85.779,151.394 85.917 C 151.446 86.054,151.679 86.167,151.911 86.167 C 152.175 86.167,152.333 86.260,152.333 86.417 C 152.333 86.583,152.500 86.667,152.833 86.667 C 153.167 86.667,153.333 86.750,153.333 86.917 C 153.333 87.083,153.500 87.167,153.833 87.167 C 154.167 87.167,154.333 87.250,154.333 87.417 C 154.333 87.583,154.500 87.667,154.833 87.667 C 155.167 87.667,155.333 87.750,155.333 87.917 C 155.333 88.102,155.528 88.167,156.083 88.167 C 156.639 88.167,156.833 88.231,156.833 88.417 C 156.833 88.611,157.056 88.667,157.833 88.667 C 158.611 88.667,158.833 88.722,158.833 88.917 C 158.833 89.134,159.574 89.167,164.500 89.167 C 169.426 89.167,170.167 89.134,170.167 88.917 C 170.167 88.722,170.389 88.667,171.167 88.667 C 171.944 88.667,172.167 88.611,172.167 88.417 C 172.167 88.233,172.359 88.167,172.896 88.167 C 173.341 88.167,173.707 88.069,173.833 87.917 C 173.947 87.779,174.283 87.667,174.578 87.667 C 175.347 87.667,175.667 87.234,175.667 86.195 C 175.667 85.540,175.607 85.333,175.417 85.333 C 175.225 85.333,175.167 85.120,175.167 84.411 C 175.167 83.746,175.097 83.463,174.917 83.394 C 174.747 83.328,174.667 83.063,174.667 82.566 L 174.667 81.833 173.578 81.833 C 172.764 81.833,172.465 81.896,172.394 82.083 C 172.335 82.235,172.083 82.333,171.753 82.333 C 171.453 82.333,171.114 82.446,171.000 82.583 C 170.859 82.754,170.480 82.833,169.813 82.833 C 169.053 82.833,168.833 82.889,168.833 83.083 C 168.833 83.298,168.324 83.333,165.250 83.333 C 162.176 83.333,161.667 83.298,161.667 83.083 C 161.667 82.889,161.444 82.833,160.667 82.833 C 159.889 82.833,159.667 82.778,159.667 82.583 C 159.667 82.419,159.502 82.333,159.184 82.333 C 158.910 82.333,158.661 82.226,158.606 82.083 C 158.552 81.940,158.303 81.833,158.026 81.833 C 157.759 81.833,157.447 81.721,157.333 81.583 C 157.219 81.446,157.023 81.333,156.896 81.333 C 156.770 81.333,156.667 81.221,156.667 81.083 C 156.667 80.946,156.526 80.833,156.354 80.833 C 156.182 80.833,155.947 80.721,155.833 80.583 C 155.719 80.446,155.523 80.333,155.396 80.333 C 155.270 80.333,155.167 80.221,155.167 80.083 C 155.167 79.946,155.054 79.833,154.917 79.833 C 154.779 79.833,154.667 79.721,154.667 79.583 C 154.667 79.446,154.554 79.333,154.417 79.333 C 154.279 79.333,154.167 79.221,154.167 79.083 C 154.167 78.946,154.054 78.833,153.917 78.833 C 153.779 78.833,153.667 78.721,153.667 78.583 C 153.667 78.446,153.554 78.333,153.417 78.333 C 153.279 78.333,153.167 78.193,153.167 78.020 C 153.167 77.848,153.054 77.614,152.917 77.500 C 152.779 77.386,152.667 77.189,152.667 77.063 C 152.667 76.937,152.554 76.833,152.417 76.833 C 152.260 76.833,152.167 76.675,152.167 76.411 C 152.167 76.179,152.054 75.946,151.917 75.894 C 151.779 75.841,151.667 75.702,151.667 75.586 C 151.667 75.469,151.554 75.281,151.417 75.167 C 151.279 75.053,151.167 74.706,151.167 74.396 C 151.167 74.035,151.086 73.833,150.942 73.833 C 150.772 73.833,150.693 73.345,150.616 71.807 C 150.560 70.692,150.436 69.702,150.340 69.607 C 150.113 69.379,150.113 66.121,150.340 65.893 C 150.436 65.798,150.560 64.808,150.616 63.693 C 150.693 62.155,150.772 61.667,150.942 61.667 C 151.086 61.667,151.167 61.465,151.167 61.104 C 151.167 60.794,151.279 60.447,151.417 60.333 C 151.554 60.219,151.667 59.910,151.667 59.646 C 151.667 59.331,151.752 59.167,151.917 59.167 C 152.083 59.167,152.167 59.000,152.167 58.667 C 152.167 58.333,152.250 58.167,152.417 58.167 C 152.554 58.167,152.667 58.054,152.667 57.917 C 152.667 57.779,152.779 57.667,152.917 57.667 C 153.054 57.667,153.167 57.563,153.167 57.437 C 153.167 57.311,153.279 57.114,153.417 57.000 C 153.554 56.886,153.667 56.652,153.667 56.480 C 153.667 56.307,153.779 56.167,153.917 56.167 C 154.054 56.167,154.167 56.054,154.167 55.917 C 154.167 55.779,154.279 55.667,154.417 55.667 C 154.554 55.667,154.667 55.554,154.667 55.417 C 154.667 55.279,154.779 55.167,154.917 55.167 C 155.054 55.167,155.167 55.054,155.167 54.917 C 155.167 54.760,155.325 54.667,155.589 54.667 C 155.821 54.667,156.054 54.554,156.106 54.417 C 156.159 54.279,156.307 54.167,156.434 54.167 C 156.562 54.167,156.667 54.054,156.667 53.917 C 156.667 53.760,156.825 53.667,157.089 53.667 C 157.321 53.667,157.554 53.554,157.606 53.417 C 157.659 53.279,157.884 53.167,158.106 53.167 C 158.329 53.167,158.554 53.054,158.606 52.917 C 158.661 52.774,158.910 52.667,159.184 52.667 C 159.502 52.667,159.667 52.581,159.667 52.417 C 159.667 52.231,159.861 52.167,160.417 52.167 C 160.972 52.167,161.167 52.102,161.167 51.917 C 161.167 51.713,161.444 51.667,162.667 51.667 C 163.889 51.667,164.167 51.620,164.167 51.417 C 164.167 51.220,164.398 51.167,165.250 51.167 C 166.102 51.167,166.333 51.220,166.333 51.417 C 166.333 51.623,166.639 51.667,168.083 51.667 C 169.528 51.667,169.833 51.710,169.833 51.917 C 169.833 52.102,170.028 52.167,170.583 52.167 C 171.139 52.167,171.333 52.231,171.333 52.417 C 171.333 52.602,171.528 52.667,172.083 52.667 C 172.639 52.667,172.833 52.731,172.833 52.917 C 172.833 53.096,173.016 53.167,173.474 53.167 C 174.305 53.167,174.667 52.771,174.667 51.862 C 174.667 51.355,174.734 51.167,174.917 51.167 C 175.102 51.167,175.167 50.972,175.167 50.417 C 175.167 49.861,175.231 49.667,175.417 49.667 C 175.899 49.667,175.761 47.528,175.266 47.339 C 175.046 47.256,174.817 47.108,174.756 47.010 C 174.696 46.913,174.398 46.833,174.094 46.833 C 173.790 46.833,173.447 46.721,173.333 46.583 C 173.208 46.433,172.844 46.333,172.417 46.333 C 171.990 46.333,171.625 46.234,171.500 46.083 C 171.346 45.898,170.936 45.833,169.917 45.833 C 168.897 45.833,168.487 45.769,168.333 45.583 C 168.164 45.380,167.622 45.333,165.417 45.333 C 163.212 45.333,162.669 45.380,162.500 45.583 M182.167 46.583 C 182.022 46.758,181.627 46.835,180.855 46.839 C 179.961 46.844,179.662 46.917,179.291 47.221 L 178.832 47.597 178.874 68.090 L 178.917 88.583 182.292 88.628 L 185.667 88.674 185.667 67.503 L 185.667 46.333 184.020 46.333 C 182.760 46.333,182.325 46.392,182.167 46.583 M191.000 46.583 C 190.886 46.721,190.689 46.833,190.563 46.833 C 190.437 46.833,190.333 46.946,190.333 47.083 C 190.333 47.221,190.221 47.333,190.083 47.333 C 189.898 47.333,189.833 47.528,189.833 48.083 C 189.833 48.639,189.769 48.833,189.583 48.833 C 189.385 48.833,189.333 49.074,189.333 50.000 C 189.333 50.926,189.385 51.167,189.583 51.167 C 189.750 51.167,189.833 51.333,189.833 51.667 C 189.833 52.000,189.917 52.167,190.083 52.167 C 190.221 52.167,190.333 52.279,190.333 52.417 C 190.333 52.554,190.446 52.667,190.583 52.667 C 190.721 52.667,190.833 52.779,190.833 52.917 C 190.833 53.054,190.937 53.167,191.063 53.167 C 191.189 53.167,191.386 53.279,191.500 53.417 C 191.650 53.597,192.045 53.667,192.917 53.667 C 193.788 53.667,194.184 53.597,194.333 53.417 C 194.447 53.279,194.704 53.167,194.904 53.167 C 195.345 53.167,195.667 52.871,195.667 52.467 C 195.667 52.302,195.779 52.167,195.917 52.167 C 196.083 52.167,196.167 52.000,196.167 51.667 C 196.167 51.333,196.250 51.167,196.417 51.167 C 196.618 51.167,196.667 50.907,196.667 49.828 C 196.667 48.792,196.610 48.468,196.417 48.394 C 196.274 48.339,196.167 48.090,196.167 47.816 C 196.167 47.498,196.081 47.333,195.917 47.333 C 195.779 47.333,195.667 47.221,195.667 47.083 C 195.667 46.946,195.562 46.833,195.434 46.833 C 195.307 46.833,195.159 46.721,195.106 46.583 C 195.029 46.381,194.645 46.333,193.109 46.333 C 191.622 46.333,191.162 46.388,191.000 46.583 M281.109 46.639 C 280.854 46.921,280.835 48.569,280.874 67.764 L 280.917 88.583 293.042 88.626 L 305.167 88.669 305.167 85.751 L 305.167 82.833 296.417 82.833 L 287.667 82.833 287.667 76.250 L 287.667 69.667 295.417 69.667 L 303.167 69.667 303.167 66.500 L 303.167 63.333 295.417 63.333 L 287.667 63.333 287.667 57.750 L 287.667 52.167 295.917 52.167 L 304.167 52.167 304.167 49.250 L 304.167 46.333 292.776 46.333 C 281.942 46.333,281.371 46.348,281.109 46.639 M377.505 46.578 C 377.350 46.764,376.967 46.833,376.089 46.833 C 374.129 46.833,374.333 44.367,374.333 68.055 L 374.333 88.667 377.750 88.667 L 381.167 88.667 381.167 78.417 C 381.167 69.417,381.197 68.167,381.417 68.167 C 381.583 68.167,381.667 68.000,381.667 67.667 C 381.667 67.333,381.750 67.167,381.917 67.167 C 382.083 67.167,382.167 67.000,382.167 66.667 C 382.167 66.333,382.250 66.167,382.417 66.167 C 382.554 66.167,382.667 66.054,382.667 65.917 C 382.667 65.779,382.779 65.667,382.917 65.667 C 383.054 65.667,383.167 65.592,383.167 65.500 C 383.167 65.284,383.784 64.667,384.000 64.667 C 384.092 64.667,384.167 64.554,384.167 64.417 C 384.167 64.279,384.307 64.167,384.480 64.167 C 384.652 64.167,384.886 64.054,385.000 63.917 C 385.114 63.779,385.452 63.667,385.750 63.667 C 386.048 63.667,386.386 63.554,386.500 63.417 C 386.652 63.234,387.054 63.167,388.000 63.167 C 388.946 63.167,389.348 63.234,389.500 63.417 C 389.614 63.554,389.877 63.667,390.083 63.667 C 390.290 63.667,390.553 63.779,390.667 63.917 C 390.781 64.054,391.090 64.167,391.354 64.167 C 391.669 64.167,391.833 64.252,391.833 64.417 C 391.833 64.554,391.946 64.667,392.083 64.667 C 392.221 64.667,392.333 64.779,392.333 64.917 C 392.333 65.054,392.446 65.167,392.583 65.167 C 392.750 65.167,392.833 65.333,392.833 65.667 C 392.833 66.000,392.917 66.167,393.083 66.167 C 393.269 66.167,393.333 66.361,393.333 66.917 C 393.333 67.472,393.398 67.667,393.583 67.667 C 393.790 67.667,393.833 67.972,393.833 69.417 C 393.833 70.861,393.877 71.167,394.083 71.167 C 394.302 71.167,394.333 72.250,394.333 79.917 L 394.333 88.667 397.167 88.667 L 400.000 88.667 400.000 76.333 C 400.000 68.222,399.943 64.000,399.833 64.000 C 399.742 64.000,399.667 63.773,399.667 63.495 C 399.667 63.199,399.563 62.950,399.417 62.894 C 399.279 62.841,399.167 62.665,399.167 62.503 C 399.167 62.340,399.054 62.114,398.917 62.000 C 398.779 61.886,398.667 61.689,398.667 61.563 C 398.667 61.437,398.554 61.333,398.417 61.333 C 398.279 61.333,398.167 61.236,398.167 61.116 C 398.167 60.846,397.140 59.833,396.867 59.833 C 396.757 59.833,396.667 59.721,396.667 59.583 C 396.667 59.446,396.554 59.333,396.417 59.333 C 396.279 59.333,396.167 59.221,396.167 59.083 C 396.167 58.917,396.000 58.833,395.667 58.833 C 395.333 58.833,395.167 58.750,395.167 58.583 C 395.167 58.417,395.000 58.333,394.667 58.333 C 394.333 58.333,394.167 58.250,394.167 58.083 C 394.167 57.895,393.965 57.833,393.354 57.833 C 392.834 57.833,392.466 57.743,392.333 57.583 C 392.167 57.382,391.656 57.333,389.730 57.333 C 387.711 57.333,387.333 57.373,387.333 57.583 C 387.333 57.775,387.120 57.833,386.411 57.833 C 385.746 57.833,385.463 57.903,385.394 58.083 C 385.340 58.222,385.093 58.333,384.836 58.333 C 384.582 58.333,384.281 58.446,384.167 58.583 C 384.053 58.721,383.818 58.833,383.646 58.833 C 383.474 58.833,383.333 58.946,383.333 59.083 C 383.333 59.221,383.200 59.333,383.037 59.333 C 382.874 59.333,382.495 59.558,382.194 59.833 C 381.892 60.108,381.576 60.333,381.490 60.333 C 381.404 60.333,381.316 60.465,381.294 60.625 C 381.273 60.785,381.217 57.654,381.169 53.667 L 381.083 46.417 379.400 46.369 C 378.049 46.332,377.675 46.373,377.505 46.578 M267.833 51.083 C 267.833 51.269,267.639 51.333,267.083 51.333 C 266.528 51.333,266.333 51.398,266.333 51.583 C 266.333 51.769,266.139 51.833,265.583 51.833 C 265.028 51.833,264.833 51.898,264.833 52.083 C 264.833 52.269,264.639 52.333,264.083 52.333 L 263.333 52.333 263.333 55.083 L 263.333 57.833 261.583 57.833 L 259.833 57.833 259.833 60.474 C 259.833 63.733,259.791 63.667,261.888 63.667 L 263.333 63.667 263.333 72.917 C 263.333 81.028,263.364 82.167,263.583 82.167 C 263.783 82.167,263.833 82.417,263.833 83.417 C 263.833 84.417,263.883 84.667,264.083 84.667 C 264.250 84.667,264.333 84.833,264.333 85.167 C 264.333 85.500,264.417 85.667,264.583 85.667 C 264.750 85.667,264.833 85.833,264.833 86.167 C 264.833 86.500,264.917 86.667,265.083 86.667 C 265.221 86.667,265.333 86.779,265.333 86.917 C 265.333 87.054,265.446 87.167,265.583 87.167 C 265.721 87.167,265.833 87.279,265.833 87.417 C 265.833 87.554,265.938 87.667,266.066 87.667 C 266.193 87.667,266.341 87.779,266.394 87.917 C 266.446 88.054,266.679 88.167,266.911 88.167 C 267.175 88.167,267.333 88.260,267.333 88.417 C 267.333 88.583,267.500 88.667,267.833 88.667 C 268.167 88.667,268.333 88.750,268.333 88.917 C 268.333 89.132,268.880 89.167,272.250 89.167 C 275.620 89.167,276.167 89.132,276.167 88.917 C 276.167 88.750,276.333 88.667,276.667 88.667 L 277.167 88.667 277.167 86.000 L 277.167 83.333 274.417 83.333 C 272.083 83.333,271.667 83.295,271.667 83.083 C 271.667 82.946,271.554 82.833,271.417 82.833 C 271.279 82.833,271.167 82.721,271.167 82.583 C 271.167 82.446,271.054 82.333,270.917 82.333 C 270.779 82.333,270.667 82.221,270.667 82.083 C 270.667 81.946,270.554 81.833,270.417 81.833 C 270.231 81.833,270.167 81.639,270.167 81.083 C 270.167 80.528,270.102 80.333,269.917 80.333 C 269.698 80.333,269.667 79.296,269.667 72.000 L 269.667 63.667 273.230 63.667 C 276.193 63.667,276.827 63.625,277.000 63.417 C 277.114 63.279,277.311 63.167,277.437 63.167 C 277.623 63.167,277.667 62.654,277.667 60.500 L 277.667 57.833 273.667 57.833 L 269.667 57.833 269.667 54.333 L 269.667 50.833 268.750 50.833 C 268.046 50.833,267.833 50.891,267.833 51.083 M361.333 51.083 C 361.333 51.269,361.139 51.333,360.583 51.333 C 360.028 51.333,359.833 51.398,359.833 51.583 C 359.833 51.769,359.639 51.833,359.083 51.833 C 358.528 51.833,358.333 51.898,358.333 52.083 C 358.333 52.269,358.139 52.333,357.583 52.333 L 356.833 52.333 356.833 55.083 L 356.833 57.833 355.083 57.833 L 353.333 57.833 353.333 60.474 C 353.333 63.733,353.291 63.667,355.388 63.667 L 356.833 63.667 356.833 73.396 C 356.833 81.841,356.866 83.153,357.083 83.333 C 357.221 83.447,357.333 83.785,357.333 84.083 C 357.333 84.382,357.446 84.719,357.583 84.833 C 357.721 84.947,357.833 85.182,357.833 85.354 C 357.833 85.526,357.946 85.667,358.083 85.667 C 358.250 85.667,358.333 85.833,358.333 86.167 C 358.333 86.500,358.417 86.667,358.583 86.667 C 358.721 86.667,358.833 86.779,358.833 86.917 C 358.833 87.054,358.946 87.167,359.083 87.167 C 359.221 87.167,359.333 87.279,359.333 87.417 C 359.333 87.554,359.446 87.667,359.583 87.667 C 359.721 87.667,359.833 87.779,359.833 87.917 C 359.833 88.083,360.000 88.167,360.333 88.167 C 360.667 88.167,360.833 88.250,360.833 88.417 C 360.833 88.581,360.998 88.667,361.316 88.667 C 361.590 88.667,361.839 88.774,361.894 88.917 C 361.975 89.129,362.570 89.167,365.828 89.167 C 369.129 89.167,369.667 89.132,369.667 88.917 C 369.667 88.753,369.830 88.667,370.141 88.667 C 371.058 88.667,371.646 86.772,370.917 86.167 C 370.733 86.014,370.667 85.610,370.667 84.646 L 370.667 83.333 367.917 83.333 C 365.583 83.333,365.167 83.295,365.167 83.083 C 365.167 82.946,365.054 82.833,364.917 82.833 C 364.779 82.833,364.667 82.721,364.667 82.583 C 364.667 82.446,364.554 82.333,364.417 82.333 C 364.250 82.333,364.167 82.167,364.167 81.833 C 364.167 81.500,364.083 81.333,363.917 81.333 C 363.721 81.333,363.667 81.104,363.667 80.270 C 363.667 79.529,363.591 79.145,363.417 79.000 C 363.201 78.821,363.167 77.749,363.167 71.230 L 363.167 63.667 366.839 63.667 C 369.949 63.667,370.525 63.628,370.606 63.417 C 370.659 63.279,370.809 63.167,370.939 63.167 C 371.135 63.167,371.167 62.718,371.129 60.542 L 371.083 57.917 367.125 57.872 L 363.167 57.827 363.167 54.330 L 363.167 50.833 362.250 50.833 C 361.546 50.833,361.333 50.891,361.333 51.083 M211.833 57.583 C 211.833 57.778,211.611 57.833,210.833 57.833 C 210.056 57.833,209.833 57.889,209.833 58.083 C 209.833 58.264,209.648 58.333,209.161 58.333 C 208.718 58.333,208.457 58.418,208.394 58.583 C 208.341 58.721,208.116 58.833,207.894 58.833 C 207.671 58.833,207.446 58.946,207.394 59.083 C 207.341 59.221,207.172 59.333,207.019 59.333 C 206.866 59.333,206.495 59.558,206.194 59.833 C 205.892 60.108,205.576 60.333,205.490 60.333 C 205.404 60.333,205.333 60.446,205.333 60.583 C 205.333 60.721,205.221 60.833,205.083 60.833 C 204.946 60.833,204.833 60.946,204.833 61.083 C 204.833 61.221,204.721 61.333,204.583 61.333 C 204.446 61.333,204.333 61.446,204.333 61.583 C 204.333 61.721,204.221 61.833,204.083 61.833 C 203.946 61.833,203.833 61.937,203.833 62.063 C 203.833 62.189,203.721 62.386,203.583 62.500 C 203.446 62.614,203.333 62.848,203.333 63.020 C 203.333 63.193,203.221 63.333,203.083 63.333 C 202.917 63.333,202.833 63.500,202.833 63.833 C 202.833 64.167,202.750 64.333,202.583 64.333 C 202.417 64.333,202.333 64.500,202.333 64.833 C 202.333 65.167,202.250 65.333,202.083 65.333 C 201.917 65.333,201.833 65.500,201.833 65.833 C 201.833 66.167,201.750 66.333,201.583 66.333 C 201.399 66.333,201.333 66.526,201.333 67.066 C 201.333 67.563,201.253 67.828,201.083 67.894 C 200.894 67.966,200.833 68.273,200.833 69.161 C 200.833 70.092,200.782 70.333,200.583 70.333 C 200.370 70.333,200.333 70.803,200.333 73.563 C 200.333 76.230,200.377 76.829,200.583 77.000 C 200.754 77.141,200.833 77.520,200.833 78.187 C 200.833 78.947,200.889 79.167,201.083 79.167 C 201.269 79.167,201.333 79.361,201.333 79.917 C 201.333 80.472,201.398 80.667,201.583 80.667 C 201.750 80.667,201.833 80.833,201.833 81.167 C 201.833 81.500,201.917 81.667,202.083 81.667 C 202.250 81.667,202.333 81.833,202.333 82.167 C 202.333 82.500,202.417 82.667,202.583 82.667 C 202.750 82.667,202.833 82.833,202.833 83.167 C 202.833 83.500,202.917 83.667,203.083 83.667 C 203.221 83.667,203.333 83.779,203.333 83.917 C 203.333 84.054,203.446 84.167,203.583 84.167 C 203.721 84.167,203.833 84.279,203.833 84.417 C 203.833 84.554,203.946 84.667,204.083 84.667 C 204.221 84.667,204.333 84.779,204.333 84.917 C 204.333 85.054,204.446 85.167,204.583 85.167 C 204.721 85.167,204.833 85.279,204.833 85.417 C 204.833 85.554,204.946 85.667,205.083 85.667 C 205.221 85.667,205.333 85.779,205.333 85.917 C 205.333 86.054,205.446 86.167,205.583 86.167 C 205.721 86.167,205.833 86.279,205.833 86.417 C 205.833 86.554,205.946 86.667,206.083 86.667 C 206.221 86.667,206.333 86.779,206.333 86.917 C 206.333 87.083,206.500 87.167,206.833 87.167 C 207.167 87.167,207.333 87.250,207.333 87.417 C 207.333 87.583,207.500 87.667,207.833 87.667 C 208.167 87.667,208.333 87.750,208.333 87.917 C 208.333 88.083,208.500 88.167,208.833 88.167 C 209.167 88.167,209.333 88.250,209.333 88.417 C 209.333 88.601,209.526 88.667,210.066 88.667 C 210.563 88.667,210.828 88.747,210.894 88.917 C 210.976 89.131,211.709 89.167,216.078 89.167 C 220.490 89.167,221.167 89.133,221.167 88.917 C 221.167 88.722,221.389 88.667,222.167 88.667 C 222.944 88.667,223.167 88.611,223.167 88.417 C 223.167 88.231,223.361 88.167,223.917 88.167 C 224.472 88.167,224.667 88.102,224.667 87.917 C 224.667 87.750,224.833 87.667,225.167 87.667 L 225.667 87.667 225.667 86.092 C 225.667 84.894,225.609 84.484,225.427 84.382 C 225.275 84.297,225.168 83.912,225.135 83.332 L 225.083 82.417 224.152 82.367 C 223.469 82.331,223.163 82.387,223.006 82.576 C 222.889 82.717,222.577 82.833,222.313 82.833 C 221.998 82.833,221.833 82.919,221.833 83.083 C 221.833 83.286,221.564 83.333,220.411 83.333 C 219.301 83.333,218.969 83.388,218.894 83.583 C 218.815 83.789,218.387 83.833,216.482 83.833 C 214.535 83.833,214.167 83.794,214.167 83.583 C 214.167 83.398,213.972 83.333,213.417 83.333 C 212.861 83.333,212.667 83.269,212.667 83.083 C 212.667 82.919,212.502 82.833,212.187 82.833 C 211.923 82.833,211.614 82.721,211.500 82.583 C 211.386 82.446,211.152 82.333,210.980 82.333 C 210.807 82.333,210.667 82.221,210.667 82.083 C 210.667 81.919,210.502 81.833,210.186 81.833 C 209.880 81.833,209.667 81.727,209.599 81.542 C 209.391 80.975,208.980 80.333,208.824 80.333 C 208.738 80.333,208.667 80.230,208.667 80.104 C 208.667 79.977,208.554 79.781,208.417 79.667 C 208.279 79.553,208.167 79.290,208.167 79.083 C 208.167 78.877,208.054 78.614,207.917 78.500 C 207.779 78.386,207.667 78.048,207.667 77.750 C 207.667 77.452,207.554 77.114,207.417 77.000 C 207.257 76.867,207.167 76.499,207.167 75.980 L 207.167 75.167 217.167 75.167 L 227.167 75.167 227.167 74.667 C 227.167 74.333,227.250 74.167,227.417 74.167 C 227.627 74.167,227.667 73.787,227.667 71.750 C 227.667 69.713,227.627 69.333,227.417 69.333 C 227.214 69.333,227.167 69.064,227.167 67.911 C 227.167 66.801,227.112 66.469,226.917 66.394 C 226.747 66.328,226.667 66.063,226.667 65.566 C 226.667 65.026,226.601 64.833,226.417 64.833 C 226.250 64.833,226.167 64.667,226.167 64.333 C 226.167 64.000,226.083 63.833,225.917 63.833 C 225.750 63.833,225.667 63.667,225.667 63.333 C 225.667 63.000,225.583 62.833,225.417 62.833 C 225.250 62.833,225.167 62.667,225.167 62.333 C 225.167 62.000,225.083 61.833,224.917 61.833 C 224.779 61.833,224.667 61.721,224.667 61.583 C 224.667 61.446,224.554 61.333,224.417 61.333 C 224.279 61.333,224.167 61.236,224.167 61.116 C 224.167 60.846,223.140 59.833,222.867 59.833 C 222.757 59.833,222.667 59.721,222.667 59.583 C 222.667 59.446,222.563 59.333,222.437 59.333 C 222.311 59.333,222.114 59.221,222.000 59.083 C 221.886 58.946,221.652 58.833,221.480 58.833 C 221.307 58.833,221.167 58.721,221.167 58.583 C 221.167 58.398,220.972 58.333,220.417 58.333 C 219.861 58.333,219.667 58.269,219.667 58.083 C 219.667 57.899,219.474 57.833,218.937 57.833 C 218.492 57.833,218.127 57.736,218.000 57.583 C 217.830 57.378,217.258 57.333,214.813 57.333 C 212.276 57.333,211.833 57.370,211.833 57.583 M243.333 57.583 C 243.333 57.778,243.111 57.833,242.333 57.833 C 241.556 57.833,241.333 57.889,241.333 58.083 C 241.333 58.248,241.169 58.333,240.854 58.333 C 240.590 58.333,240.281 58.446,240.167 58.583 C 240.053 58.721,239.818 58.833,239.646 58.833 C 239.474 58.833,239.333 58.946,239.333 59.083 C 239.333 59.250,239.167 59.333,238.833 59.333 C 238.500 59.333,238.333 59.417,238.333 59.583 C 238.333 59.721,238.221 59.833,238.083 59.833 C 237.946 59.833,237.833 59.946,237.833 60.083 C 237.833 60.221,237.721 60.333,237.583 60.333 C 237.446 60.333,237.333 60.446,237.333 60.583 C 237.333 60.721,237.226 60.833,237.096 60.833 C 236.965 60.833,236.823 60.965,236.782 61.125 C 236.740 61.285,236.697 60.700,236.686 59.825 C 236.660 57.724,236.846 57.833,233.300 57.833 L 230.333 57.833 230.333 59.730 C 230.333 61.212,230.388 61.671,230.583 61.833 C 230.802 62.015,230.833 63.723,230.833 75.354 L 230.833 88.667 233.974 88.667 C 236.805 88.667,237.142 88.637,237.391 88.362 C 237.641 88.085,237.667 87.134,237.667 78.132 C 237.667 69.514,237.700 68.180,237.917 68.000 C 238.054 67.886,238.167 67.623,238.167 67.417 C 238.167 67.210,238.279 66.947,238.417 66.833 C 238.554 66.719,238.667 66.494,238.667 66.333 C 238.667 66.172,238.779 65.947,238.917 65.833 C 239.054 65.719,239.167 65.523,239.167 65.396 C 239.167 65.270,239.279 65.167,239.417 65.167 C 239.554 65.167,239.667 65.054,239.667 64.917 C 239.667 64.779,239.779 64.667,239.917 64.667 C 240.054 64.667,240.167 64.554,240.167 64.417 C 240.167 64.267,240.321 64.167,240.551 64.167 C 240.763 64.167,241.082 64.057,241.260 63.922 C 241.438 63.787,241.775 63.675,242.010 63.672 C 242.244 63.669,242.582 63.557,242.760 63.422 C 242.973 63.261,243.482 63.177,244.250 63.177 C 245.018 63.177,245.527 63.261,245.740 63.422 C 245.918 63.557,246.265 63.667,246.511 63.667 C 246.758 63.667,247.053 63.779,247.167 63.917 C 247.281 64.054,247.506 64.167,247.667 64.167 C 247.828 64.167,248.053 64.279,248.167 64.417 C 248.281 64.554,248.477 64.667,248.604 64.667 C 248.748 64.667,248.833 64.853,248.833 65.167 C 248.833 65.478,248.919 65.667,249.061 65.667 C 249.205 65.667,249.327 65.950,249.394 66.442 C 249.453 66.868,249.594 67.329,249.709 67.467 C 249.868 67.660,249.930 70.039,249.972 77.734 C 250.004 83.500,250.092 87.817,250.180 87.908 C 250.265 87.995,250.333 88.202,250.333 88.367 C 250.333 88.645,250.562 88.667,253.500 88.667 L 256.667 88.667 256.667 77.270 C 256.667 67.344,256.634 65.847,256.417 65.667 C 256.257 65.534,256.167 65.166,256.167 64.646 C 256.167 64.035,256.105 63.833,255.917 63.833 C 255.750 63.833,255.667 63.667,255.667 63.333 C 255.667 63.000,255.583 62.833,255.417 62.833 C 255.250 62.833,255.167 62.667,255.167 62.333 C 255.167 62.000,255.083 61.833,254.917 61.833 C 254.779 61.833,254.667 61.700,254.667 61.537 C 254.667 61.374,254.442 60.995,254.167 60.694 C 253.892 60.392,253.667 60.076,253.667 59.990 C 253.667 59.904,253.562 59.833,253.434 59.833 C 253.307 59.833,253.159 59.721,253.106 59.583 C 253.054 59.446,252.905 59.333,252.776 59.333 C 252.646 59.333,252.447 59.221,252.333 59.083 C 252.219 58.946,251.994 58.833,251.833 58.833 C 251.672 58.833,251.447 58.721,251.333 58.583 C 251.219 58.446,250.910 58.333,250.646 58.333 C 250.331 58.333,250.167 58.248,250.167 58.083 C 250.167 57.899,249.974 57.833,249.434 57.833 C 248.937 57.833,248.672 57.753,248.606 57.583 C 248.527 57.376,248.069 57.333,245.922 57.333 C 243.732 57.333,243.333 57.372,243.333 57.583 M315.833 57.583 C 315.833 57.782,315.592 57.833,314.661 57.833 C 313.773 57.833,313.466 57.894,313.394 58.083 C 313.328 58.253,313.063 58.333,312.566 58.333 C 312.026 58.333,311.833 58.399,311.833 58.583 C 311.833 58.756,311.660 58.833,311.270 58.833 C 310.961 58.833,310.614 58.946,310.500 59.083 C 310.386 59.221,310.175 59.333,310.030 59.333 C 309.189 59.333,308.466 60.987,309.083 61.500 C 309.228 61.620,309.333 61.983,309.333 62.359 C 309.333 62.784,309.420 63.044,309.583 63.106 C 309.721 63.159,309.833 63.407,309.833 63.659 C 309.833 64.524,311.287 65.075,311.833 64.417 C 311.947 64.279,312.172 64.167,312.333 64.167 C 312.494 64.167,312.719 64.054,312.833 63.917 C 312.950 63.776,313.314 63.667,313.667 63.667 C 314.020 63.667,314.383 63.558,314.500 63.417 C 314.636 63.253,315.007 63.167,315.572 63.167 C 316.074 63.167,316.572 63.064,316.760 62.922 C 317.220 62.574,319.712 62.570,320.000 62.917 C 320.117 63.058,320.480 63.167,320.833 63.167 C 321.186 63.167,321.550 63.276,321.667 63.417 C 321.781 63.554,322.006 63.667,322.167 63.667 C 322.328 63.667,322.553 63.779,322.667 63.917 C 322.781 64.054,322.977 64.167,323.104 64.167 C 323.230 64.167,323.333 64.270,323.333 64.396 C 323.333 64.523,323.446 64.719,323.583 64.833 C 323.733 64.957,323.833 65.322,323.833 65.739 C 323.833 66.122,323.943 66.582,324.078 66.760 C 324.213 66.938,324.325 67.434,324.328 67.863 C 324.332 68.462,324.401 68.660,324.625 68.718 C 324.785 68.760,323.435 68.803,321.625 68.814 C 318.819 68.830,318.333 68.870,318.333 69.083 C 318.333 69.278,318.111 69.333,317.333 69.333 C 316.556 69.333,316.333 69.389,316.333 69.583 C 316.333 69.771,316.132 69.833,315.520 69.833 C 315.001 69.833,314.633 69.924,314.500 70.083 C 314.386 70.221,314.077 70.333,313.813 70.333 C 313.498 70.333,313.333 70.419,313.333 70.583 C 313.333 70.750,313.167 70.833,312.833 70.833 C 312.500 70.833,312.333 70.917,312.333 71.083 C 312.333 71.250,312.167 71.333,311.833 71.333 C 311.500 71.333,311.333 71.417,311.333 71.583 C 311.333 71.721,311.221 71.833,311.083 71.833 C 310.946 71.833,310.833 71.946,310.833 72.083 C 310.833 72.221,310.721 72.333,310.583 72.333 C 310.446 72.333,310.333 72.446,310.333 72.583 C 310.333 72.721,310.192 72.833,310.020 72.833 C 309.710 72.833,308.833 73.811,308.833 74.156 C 308.833 74.253,308.721 74.333,308.583 74.333 C 308.446 74.333,308.333 74.474,308.333 74.646 C 308.333 74.818,308.221 75.053,308.083 75.167 C 307.946 75.281,307.833 75.506,307.833 75.667 C 307.833 75.828,307.721 76.053,307.583 76.167 C 307.414 76.307,307.333 76.684,307.333 77.336 C 307.333 78.037,307.266 78.324,307.083 78.394 C 306.885 78.470,306.833 78.820,306.833 80.078 C 306.833 81.379,306.879 81.667,307.083 81.667 C 307.278 81.667,307.333 81.889,307.333 82.667 C 307.333 83.444,307.389 83.667,307.583 83.667 C 307.764 83.667,307.833 83.852,307.833 84.339 C 307.833 84.782,307.918 85.043,308.083 85.106 C 308.221 85.159,308.333 85.307,308.333 85.434 C 308.333 85.562,308.446 85.667,308.583 85.667 C 308.721 85.667,308.833 85.779,308.833 85.917 C 308.833 86.054,308.946 86.167,309.083 86.167 C 309.221 86.167,309.333 86.302,309.333 86.467 C 309.333 86.851,309.649 87.167,310.033 87.167 C 310.198 87.167,310.333 87.279,310.333 87.417 C 310.333 87.554,310.446 87.667,310.583 87.667 C 310.721 87.667,310.833 87.779,310.833 87.917 C 310.833 88.083,311.000 88.167,311.333 88.167 C 311.667 88.167,311.833 88.250,311.833 88.417 C 311.833 88.583,312.000 88.667,312.333 88.667 C 312.667 88.667,312.833 88.750,312.833 88.917 C 312.833 89.117,313.083 89.167,314.083 89.167 C 315.083 89.167,315.333 89.217,315.333 89.417 C 315.333 89.615,315.574 89.667,316.500 89.667 C 317.426 89.667,317.667 89.615,317.667 89.417 C 317.667 89.217,317.917 89.167,318.917 89.167 C 319.917 89.167,320.167 89.117,320.167 88.917 C 320.167 88.731,320.361 88.667,320.917 88.667 C 321.472 88.667,321.667 88.602,321.667 88.417 C 321.667 88.250,321.833 88.167,322.167 88.167 C 322.500 88.167,322.667 88.083,322.667 87.917 C 322.667 87.779,322.807 87.667,322.980 87.667 C 323.152 87.667,323.386 87.554,323.500 87.417 C 323.614 87.279,323.811 87.167,323.937 87.167 C 324.063 87.167,324.167 87.054,324.167 86.917 C 324.167 86.779,324.274 86.667,324.404 86.667 C 324.535 86.667,324.677 86.535,324.718 86.375 C 324.779 86.143,324.799 86.156,324.814 86.438 C 324.825 86.633,324.942 86.883,325.074 86.993 C 325.207 87.103,325.338 87.506,325.366 87.888 L 325.417 88.583 328.542 88.629 L 331.667 88.674 331.667 87.504 C 331.667 86.574,331.615 86.333,331.417 86.333 C 331.197 86.333,331.167 85.141,331.167 76.604 C 331.167 68.159,331.134 66.847,330.917 66.667 C 330.742 66.522,330.667 66.138,330.667 65.396 C 330.667 64.563,330.613 64.333,330.417 64.333 C 330.231 64.333,330.167 64.139,330.167 63.583 C 330.167 63.028,330.102 62.833,329.917 62.833 C 329.762 62.833,329.667 62.677,329.667 62.425 C 329.667 62.200,329.567 61.957,329.446 61.883 C 329.324 61.810,329.171 61.637,329.106 61.500 C 328.527 60.284,326.893 58.833,326.101 58.833 C 325.826 58.833,325.667 58.742,325.667 58.583 C 325.667 58.417,325.500 58.333,325.167 58.333 C 324.833 58.333,324.667 58.250,324.667 58.083 C 324.667 57.889,324.444 57.833,323.667 57.833 C 322.889 57.833,322.667 57.778,322.667 57.583 C 322.667 57.369,322.176 57.333,319.250 57.333 C 316.324 57.333,315.833 57.369,315.833 57.583 M189.833 73.250 L 189.833 88.667 193.000 88.667 L 196.167 88.667 196.167 73.250 L 196.167 57.833 193.000 57.833 L 189.833 57.833 189.833 73.250 M335.333 73.250 L 335.333 88.667 338.550 88.667 C 340.830 88.667,341.825 88.608,341.967 88.467 C 342.117 88.316,342.168 86.129,342.172 79.675 C 342.176 72.384,342.214 71.034,342.422 70.760 C 342.571 70.562,342.667 70.063,342.667 69.478 C 342.667 68.951,342.739 68.475,342.829 68.420 C 342.918 68.365,343.040 67.948,343.100 67.493 C 343.171 66.957,343.290 66.667,343.438 66.667 C 343.564 66.667,343.667 66.554,343.667 66.417 C 343.667 66.279,343.779 66.167,343.917 66.167 C 344.054 66.167,344.167 66.054,344.167 65.917 C 344.167 65.779,344.279 65.667,344.417 65.667 C 344.554 65.667,344.667 65.554,344.667 65.417 C 344.667 65.279,344.779 65.167,344.917 65.167 C 345.054 65.167,345.167 65.054,345.167 64.917 C 345.167 64.779,345.270 64.667,345.396 64.667 C 345.523 64.667,345.719 64.554,345.833 64.417 C 345.957 64.267,346.322 64.167,346.739 64.167 C 347.122 64.167,347.582 64.057,347.760 63.922 C 348.158 63.621,349.222 63.594,349.669 63.873 C 349.932 64.038,350.068 64.038,350.331 63.873 C 350.513 63.760,350.776 63.667,350.914 63.667 C 351.130 63.667,351.167 63.243,351.167 60.750 L 351.167 57.833 349.000 57.833 C 347.185 57.833,346.833 57.874,346.833 58.083 C 346.833 58.271,346.632 58.333,346.020 58.333 C 345.501 58.333,345.133 58.424,345.000 58.583 C 344.886 58.721,344.661 58.833,344.500 58.833 C 344.339 58.833,344.114 58.946,344.000 59.083 C 343.886 59.221,343.698 59.333,343.582 59.333 C 343.466 59.333,342.988 59.693,342.519 60.133 L 341.667 60.934 341.667 59.659 C 341.667 57.808,341.715 57.833,338.195 57.833 L 335.333 57.833 335.333 73.250 M216.167 62.917 C 216.281 63.054,216.618 63.167,216.917 63.167 C 217.215 63.167,217.553 63.279,217.667 63.417 C 217.781 63.554,217.968 63.667,218.083 63.667 C 218.198 63.667,218.386 63.779,218.500 63.917 C 218.614 64.054,218.848 64.167,219.020 64.167 C 219.193 64.167,219.333 64.279,219.333 64.417 C 219.333 64.554,219.446 64.667,219.583 64.667 C 219.748 64.667,219.833 64.831,219.833 65.146 C 219.833 65.410,219.946 65.719,220.083 65.833 C 220.241 65.965,220.333 66.332,220.333 66.833 C 220.333 67.334,220.425 67.702,220.583 67.833 C 220.742 67.965,220.833 68.333,220.833 68.842 C 220.833 69.464,220.898 69.659,221.125 69.718 C 221.285 69.760,218.210 69.803,214.292 69.814 C 207.405 69.833,207.167 69.823,207.167 69.518 C 207.167 69.344,207.279 69.159,207.417 69.106 C 207.580 69.044,207.667 68.784,207.667 68.356 C 207.667 67.929,207.753 67.669,207.917 67.606 C 208.054 67.554,208.167 67.330,208.167 67.109 C 208.167 66.888,208.279 66.614,208.417 66.500 C 208.554 66.386,208.667 66.181,208.667 66.045 C 208.667 65.909,208.892 65.514,209.167 65.167 C 209.442 64.819,209.667 64.452,209.667 64.351 C 209.667 64.250,209.770 64.167,209.896 64.167 C 210.023 64.167,210.219 64.054,210.333 63.917 C 210.447 63.779,210.672 63.667,210.833 63.667 C 210.994 63.667,211.219 63.554,211.333 63.417 C 211.447 63.279,211.759 63.167,212.026 63.167 C 212.303 63.167,212.552 63.060,212.606 62.917 C 212.683 62.718,213.037 62.667,214.331 62.667 C 215.575 62.667,216.008 62.726,216.167 62.917 M119.167 64.626 C 119.167 64.718,119.279 64.886,119.417 65.000 C 119.556 65.116,119.667 65.134,119.667 65.041 C 119.667 64.949,119.554 64.781,119.417 64.667 C 119.277 64.551,119.167 64.533,119.167 64.626 M119.672 67.698 C 119.669 67.854,119.742 68.027,119.833 68.083 C 119.925 68.140,120.000 68.777,120.000 69.500 C 120.000 70.223,119.925 70.860,119.833 70.917 C 119.742 70.973,119.669 71.146,119.672 71.302 C 119.694 72.467,120.167 70.745,120.167 69.500 C 120.167 68.255,119.694 66.533,119.672 67.698 M324.367 76.534 C 324.340 78.111,324.255 79.480,324.178 79.576 C 324.101 79.672,323.986 79.994,323.923 80.292 C 323.858 80.594,323.702 80.833,323.570 80.833 C 323.418 80.833,323.333 81.012,323.333 81.333 C 323.333 81.667,323.250 81.833,323.083 81.833 C 322.946 81.833,322.833 81.946,322.833 82.083 C 322.833 82.250,322.667 82.333,322.333 82.333 C 322.000 82.333,321.833 82.417,321.833 82.583 C 321.833 82.721,321.721 82.833,321.583 82.833 C 321.446 82.833,321.333 82.946,321.333 83.083 C 321.333 83.250,321.167 83.333,320.833 83.333 C 320.500 83.333,320.333 83.417,320.333 83.583 C 320.333 83.792,319.991 83.833,318.250 83.833 C 316.509 83.833,316.167 83.792,316.167 83.583 C 316.167 83.417,316.000 83.333,315.667 83.333 C 315.333 83.333,315.167 83.250,315.167 83.083 C 315.167 82.946,315.054 82.833,314.917 82.833 C 314.779 82.833,314.667 82.721,314.667 82.583 C 314.667 82.446,314.554 82.333,314.417 82.333 C 314.250 82.333,314.167 82.167,314.167 81.833 C 314.167 81.500,314.083 81.333,313.917 81.333 C 313.711 81.333,313.667 81.039,313.667 79.687 C 313.667 78.427,313.725 77.992,313.917 77.833 C 314.054 77.719,314.167 77.563,314.167 77.485 C 314.167 77.290,315.308 76.167,315.506 76.167 C 315.594 76.167,315.667 76.054,315.667 75.917 C 315.667 75.779,315.779 75.667,315.917 75.667 C 316.054 75.667,316.167 75.554,316.167 75.417 C 316.167 75.250,316.333 75.167,316.667 75.167 C 317.000 75.167,317.167 75.083,317.167 74.917 C 317.167 74.731,317.361 74.667,317.917 74.667 C 318.472 74.667,318.667 74.602,318.667 74.417 C 318.667 74.217,318.914 74.167,319.896 74.167 C 320.786 74.167,321.183 74.098,321.333 73.917 C 321.488 73.730,321.904 73.667,322.979 73.666 L 324.417 73.666 324.367 76.534 M119.333 74.083 C 119.216 74.225,119.157 74.379,119.202 74.425 C 119.248 74.471,119.382 74.392,119.500 74.250 C 119.618 74.108,119.677 73.954,119.631 73.909 C 119.585 73.863,119.451 73.941,119.333 74.083 " stroke="none" fill="#8c8c8c" fill-rule="evenodd"></path><path id="path1" d="M96.375 49.291 C 95.158 49.334,94.833 49.397,94.833 49.590 C 94.833 49.774,94.609 49.833,93.911 49.833 C 93.246 49.833,92.963 49.903,92.894 50.083 C 92.839 50.226,92.590 50.333,92.316 50.333 C 91.998 50.333,91.833 50.419,91.833 50.583 C 91.833 50.764,91.648 50.833,91.161 50.833 C 90.718 50.833,90.457 50.918,90.394 51.083 C 90.341 51.221,90.165 51.333,90.003 51.333 C 89.840 51.333,89.614 51.446,89.500 51.583 C 89.386 51.721,89.189 51.833,89.063 51.833 C 88.937 51.833,88.833 51.946,88.833 52.083 C 88.833 52.221,88.693 52.333,88.520 52.333 C 88.348 52.333,88.114 52.446,88.000 52.583 C 87.886 52.721,87.689 52.833,87.563 52.833 C 87.437 52.833,87.333 52.946,87.333 53.083 C 87.333 53.221,87.221 53.333,87.083 53.333 C 86.946 53.333,86.833 53.446,86.833 53.583 C 86.833 53.721,86.721 53.833,86.583 53.833 C 86.446 53.833,86.333 53.946,86.333 54.083 C 86.333 54.221,86.221 54.333,86.083 54.333 C 85.946 54.333,85.833 54.446,85.833 54.583 C 85.833 54.721,85.721 54.833,85.583 54.833 C 85.446 54.833,85.333 54.946,85.333 55.083 C 85.333 55.221,85.221 55.333,85.083 55.333 C 84.946 55.333,84.833 55.446,84.833 55.583 C 84.833 55.721,84.721 55.833,84.583 55.833 C 84.446 55.833,84.333 55.946,84.333 56.083 C 84.333 56.221,84.221 56.333,84.083 56.333 C 83.946 56.333,83.833 56.446,83.833 56.583 C 83.833 56.721,83.721 56.833,83.583 56.833 C 83.446 56.833,83.333 56.946,83.333 57.083 C 83.333 57.221,83.221 57.333,83.083 57.333 C 82.917 57.333,82.833 57.500,82.833 57.833 C 82.833 58.167,82.750 58.333,82.583 58.333 C 82.446 58.333,82.333 58.446,82.333 58.583 C 82.333 58.721,82.221 58.833,82.083 58.833 C 81.917 58.833,81.833 59.000,81.833 59.333 C 81.833 59.667,81.750 59.833,81.583 59.833 C 81.446 59.833,81.333 59.974,81.333 60.146 C 81.333 60.318,81.221 60.553,81.083 60.667 C 80.946 60.781,80.833 61.006,80.833 61.167 C 80.833 61.328,80.721 61.553,80.583 61.667 C 80.446 61.781,80.333 62.081,80.333 62.333 C 80.333 62.586,80.221 62.886,80.083 63.000 C 79.924 63.133,79.833 63.501,79.833 64.020 C 79.833 64.632,79.771 64.833,79.583 64.833 C 79.367 64.833,79.333 65.463,79.333 69.500 C 79.333 73.537,79.367 74.167,79.583 74.167 C 79.771 74.167,79.833 74.368,79.833 74.980 C 79.833 75.499,79.924 75.867,80.083 76.000 C 80.221 76.114,80.333 76.414,80.333 76.667 C 80.333 76.919,80.446 77.219,80.583 77.333 C 80.721 77.447,80.833 77.672,80.833 77.833 C 80.833 77.994,80.946 78.219,81.083 78.333 C 81.221 78.447,81.333 78.682,81.333 78.854 C 81.333 79.026,81.446 79.167,81.583 79.167 C 81.750 79.167,81.833 79.333,81.833 79.667 C 81.833 80.000,81.917 80.167,82.083 80.167 C 82.221 80.167,82.333 80.279,82.333 80.417 C 82.333 80.554,82.446 80.667,82.583 80.667 C 82.750 80.667,82.833 80.833,82.833 81.167 C 82.833 81.500,82.917 81.667,83.083 81.667 C 83.221 81.667,83.333 81.779,83.333 81.917 C 83.333 82.054,83.446 82.167,83.583 82.167 C 83.721 82.167,83.833 82.279,83.833 82.417 C 83.833 82.554,83.946 82.667,84.083 82.667 C 84.221 82.667,84.333 82.779,84.333 82.917 C 84.333 83.054,84.446 83.167,84.583 83.167 C 84.721 83.167,84.833 83.279,84.833 83.417 C 84.833 83.554,84.946 83.667,85.083 83.667 C 85.221 83.667,85.333 83.779,85.333 83.917 C 85.333 84.054,85.446 84.167,85.583 84.167 C 85.721 84.167,85.833 84.279,85.833 84.417 C 85.833 84.554,85.946 84.667,86.083 84.667 C 86.221 84.667,86.333 84.779,86.333 84.917 C 86.333 85.054,86.446 85.167,86.583 85.167 C 86.721 85.167,86.833 85.279,86.833 85.417 C 86.833 85.554,86.946 85.667,87.083 85.667 C 87.221 85.667,87.333 85.779,87.333 85.917 C 87.333 86.054,87.437 86.167,87.563 86.167 C 87.689 86.167,87.886 86.279,88.000 86.417 C 88.114 86.554,88.348 86.667,88.520 86.667 C 88.693 86.667,88.833 86.779,88.833 86.917 C 88.833 87.083,89.000 87.167,89.333 87.167 C 89.667 87.167,89.833 87.250,89.833 87.417 C 89.833 87.554,89.937 87.667,90.063 87.667 C 90.189 87.667,90.386 87.779,90.500 87.917 C 90.614 88.054,90.961 88.167,91.270 88.167 C 91.660 88.167,91.833 88.244,91.833 88.417 C 91.833 88.581,91.998 88.667,92.316 88.667 C 92.590 88.667,92.839 88.774,92.894 88.917 C 92.963 89.097,93.246 89.167,93.911 89.167 C 94.592 89.167,94.833 89.228,94.833 89.401 C 94.833 89.666,98.097 89.876,98.434 89.633 C 98.651 89.476,98.729 89.475,101.792 89.604 C 103.907 89.694,104.167 89.675,104.167 89.436 C 104.167 89.225,104.343 89.167,104.980 89.167 C 105.499 89.167,105.867 89.076,106.000 88.917 C 106.114 88.779,106.423 88.667,106.687 88.667 C 107.002 88.667,107.167 88.581,107.167 88.417 C 107.167 88.250,107.333 88.167,107.667 88.167 C 108.000 88.167,108.167 88.083,108.167 87.917 C 108.167 87.750,108.333 87.667,108.667 87.667 C 109.000 87.667,109.167 87.583,109.167 87.417 C 109.167 87.250,109.333 87.167,109.667 87.167 C 110.000 87.167,110.167 87.083,110.167 86.917 C 110.167 86.779,110.307 86.667,110.480 86.667 C 110.652 86.667,110.886 86.554,111.000 86.417 C 111.114 86.279,111.311 86.167,111.437 86.167 C 111.563 86.167,111.667 86.054,111.667 85.917 C 111.667 85.779,111.779 85.667,111.917 85.667 C 112.054 85.667,112.167 85.554,112.167 85.417 C 112.167 85.279,112.296 85.167,112.454 85.167 C 112.835 85.167,115.167 82.842,115.167 82.463 C 115.167 82.300,115.279 82.167,115.417 82.167 C 115.554 82.167,115.667 82.054,115.667 81.917 C 115.667 81.779,115.779 81.667,115.917 81.667 C 116.054 81.667,116.167 81.562,116.167 81.434 C 116.167 81.307,116.279 81.159,116.417 81.106 C 116.554 81.054,116.667 80.821,116.667 80.589 C 116.667 80.325,116.760 80.167,116.917 80.167 C 117.054 80.167,117.167 80.026,117.167 79.854 C 117.167 79.682,117.279 79.447,117.417 79.333 C 117.554 79.219,117.667 79.032,117.667 78.917 C 117.667 78.802,117.779 78.614,117.917 78.500 C 118.054 78.386,118.167 78.039,118.167 77.730 C 118.167 77.340,118.244 77.167,118.417 77.167 C 118.581 77.167,118.667 77.002,118.667 76.687 C 118.667 76.423,118.779 76.114,118.917 76.000 C 119.075 75.869,119.167 75.501,119.167 75.000 C 119.167 74.499,119.259 74.131,119.417 74.000 C 119.602 73.846,119.667 73.435,119.667 72.406 C 119.667 71.644,119.742 70.973,119.833 70.917 C 119.925 70.860,120.000 70.223,120.000 69.500 C 120.000 68.777,119.925 68.140,119.833 68.083 C 119.742 68.027,119.667 67.356,119.667 66.594 C 119.667 65.565,119.602 65.154,119.417 65.000 C 119.259 64.869,119.167 64.501,119.167 64.000 C 119.167 63.499,119.075 63.131,118.917 63.000 C 118.779 62.886,118.667 62.577,118.667 62.313 C 118.667 61.998,118.581 61.833,118.417 61.833 C 118.244 61.833,118.167 61.660,118.167 61.270 C 118.167 60.961,118.054 60.614,117.917 60.500 C 117.779 60.386,117.667 60.198,117.667 60.083 C 117.667 59.968,117.554 59.781,117.417 59.667 C 117.279 59.553,117.167 59.318,117.167 59.146 C 117.167 58.974,117.054 58.833,116.917 58.833 C 116.760 58.833,116.667 58.675,116.667 58.411 C 116.667 58.179,116.554 57.946,116.417 57.894 C 116.279 57.841,116.167 57.693,116.167 57.566 C 116.167 57.438,116.054 57.333,115.917 57.333 C 115.779 57.333,115.667 57.221,115.667 57.083 C 115.667 56.946,115.554 56.833,115.417 56.833 C 115.279 56.833,115.167 56.704,115.167 56.546 C 115.167 56.165,112.842 53.833,112.463 53.833 C 112.300 53.833,112.167 53.721,112.167 53.583 C 112.167 53.446,112.054 53.333,111.917 53.333 C 111.779 53.333,111.667 53.221,111.667 53.083 C 111.667 52.946,111.526 52.833,111.354 52.833 C 111.182 52.833,110.947 52.721,110.833 52.583 C 110.719 52.446,110.523 52.333,110.396 52.333 C 110.270 52.333,110.167 52.221,110.167 52.083 C 110.167 51.917,110.000 51.833,109.667 51.833 C 109.333 51.833,109.167 51.750,109.167 51.583 C 109.167 51.417,109.000 51.333,108.667 51.333 C 108.333 51.333,108.167 51.250,108.167 51.083 C 108.167 50.917,108.000 50.833,107.667 50.833 C 107.333 50.833,107.167 50.750,107.167 50.583 C 107.167 50.419,107.002 50.333,106.687 50.333 C 106.423 50.333,106.114 50.221,106.000 50.083 C 105.867 49.924,105.499 49.833,104.980 49.833 C 104.343 49.833,104.167 49.775,104.167 49.564 C 104.167 49.325,103.907 49.306,101.792 49.396 C 98.679 49.527,98.626 49.526,98.432 49.332 C 98.341 49.241,98.188 49.182,98.092 49.201 C 97.995 49.220,97.223 49.261,96.375 49.291 " stroke="none" fill="#828282" fill-rule="evenodd"></path></g></svg>