<svg id="svg" xmlns="http://www.w3.org/2000/svg" xmlns:xlink="http://www.w3.org/1999/xlink" width="400" height="61.25" viewBox="0, 0, 400,61.25"><g id="svgg"><path id="path0" d="M15.375 0.113 C 14.710 0.151,14.167 0.253,14.167 0.341 C 14.167 0.428,13.829 0.500,13.417 0.500 C 13.004 0.500,12.667 0.575,12.667 0.667 C 12.667 0.758,12.367 0.833,12.000 0.833 C 11.633 0.833,11.333 0.900,11.333 0.981 C 11.333 1.062,10.985 1.181,10.559 1.245 C 10.133 1.309,9.627 1.442,9.434 1.540 C 8.654 1.938,8.494 2.000,8.252 2.000 C 8.114 2.000,8.000 2.075,8.000 2.167 C 8.000 2.258,7.920 2.333,7.822 2.333 C 7.724 2.333,7.316 2.558,6.917 2.833 C 6.517 3.108,6.144 3.333,6.088 3.333 C 5.902 3.333,5.529 3.685,3.166 6.092 C 2.892 6.372,2.667 6.674,2.667 6.764 C 2.667 6.853,2.517 7.035,2.333 7.167 C 2.150 7.299,2.000 7.540,2.000 7.703 C 2.000 7.867,1.925 8.000,1.833 8.000 C 1.742 8.000,1.664 8.131,1.661 8.292 C 1.658 8.452,1.546 8.729,1.411 8.907 C 1.277 9.085,1.167 9.441,1.167 9.699 C 1.167 9.956,1.092 10.167,1.000 10.167 C 0.908 10.167,0.833 10.429,0.833 10.750 C 0.833 11.071,0.758 11.333,0.667 11.333 C 0.575 11.333,0.500 11.708,0.500 12.167 C 0.500 12.625,0.425 13.000,0.333 13.000 C 0.107 13.000,0.107 19.610,0.333 19.750 C 0.425 19.807,0.500 20.111,0.500 20.427 C 0.500 20.742,0.575 21.000,0.667 21.000 C 0.758 21.000,0.833 21.258,0.833 21.573 C 0.833 21.889,0.900 22.188,0.981 22.238 C 1.062 22.289,1.178 22.593,1.239 22.915 C 1.299 23.237,1.420 23.500,1.508 23.500 C 1.595 23.500,1.667 23.650,1.667 23.833 C 1.667 24.017,1.742 24.167,1.833 24.167 C 1.925 24.167,2.000 24.260,2.000 24.375 C 2.000 24.490,2.190 24.808,2.422 25.083 C 2.654 25.358,3.047 25.834,3.297 26.139 C 3.892 26.870,4.986 27.960,5.750 28.583 C 6.087 28.858,6.585 29.286,6.857 29.533 C 7.128 29.781,7.496 30.029,7.675 30.086 C 7.854 30.143,8.000 30.254,8.000 30.333 C 8.000 30.413,8.163 30.529,8.362 30.592 C 8.561 30.656,8.876 30.848,9.060 31.020 C 9.245 31.193,9.495 31.333,9.615 31.333 C 9.735 31.333,9.833 31.408,9.833 31.500 C 9.833 31.592,9.932 31.667,10.052 31.667 C 10.172 31.667,10.431 31.817,10.628 32.000 C 10.825 32.183,11.028 32.333,11.080 32.333 C 11.131 32.333,11.470 32.521,11.833 32.750 C 12.196 32.979,12.607 33.167,12.747 33.167 C 12.886 33.167,13.000 33.242,13.000 33.333 C 13.000 33.425,13.116 33.500,13.257 33.500 C 13.398 33.500,13.675 33.650,13.872 33.833 C 14.068 34.016,14.440 34.260,14.698 34.374 C 14.956 34.488,15.167 34.638,15.167 34.707 C 15.167 34.777,15.310 34.833,15.486 34.833 C 15.662 34.833,15.831 34.890,15.861 34.958 C 15.892 35.027,16.384 35.308,16.956 35.583 C 17.527 35.858,17.996 36.140,17.997 36.208 C 17.999 36.277,18.150 36.333,18.333 36.333 C 18.517 36.333,18.667 36.408,18.667 36.500 C 18.667 36.592,18.779 36.667,18.917 36.667 C 19.054 36.667,19.167 36.742,19.167 36.833 C 19.167 36.925,19.265 37.000,19.385 37.000 C 19.505 37.000,19.752 37.138,19.932 37.306 C 20.113 37.475,20.465 37.664,20.714 37.726 C 20.963 37.789,21.167 37.913,21.167 38.003 C 21.167 38.093,21.263 38.167,21.380 38.167 C 21.497 38.167,21.701 38.317,21.833 38.500 C 21.965 38.683,22.177 38.833,22.303 38.833 C 22.430 38.833,22.743 39.058,23.000 39.333 C 23.257 39.608,23.531 39.833,23.609 39.833 C 23.856 39.833,25.167 41.118,25.167 41.361 C 25.167 41.488,25.317 41.701,25.500 41.833 C 25.683 41.965,25.833 42.170,25.833 42.287 C 25.833 42.404,25.901 42.500,25.983 42.500 C 26.632 42.500,26.630 46.878,25.980 47.997 C 25.682 48.511,24.389 49.833,24.185 49.833 C 24.099 49.833,24.003 49.907,23.972 49.998 C 23.942 50.088,23.542 50.207,23.083 50.261 C 22.625 50.315,22.088 50.438,21.890 50.533 C 21.692 50.629,21.280 50.664,20.974 50.611 C 20.667 50.559,19.968 50.442,19.420 50.351 C 18.871 50.259,18.396 50.106,18.364 50.009 C 18.332 49.912,18.197 49.833,18.065 49.833 C 17.712 49.833,16.362 48.424,16.237 47.925 C 16.178 47.690,16.063 47.456,15.982 47.405 C 15.900 47.355,15.833 45.749,15.833 43.837 C 15.833 41.925,15.788 40.242,15.732 40.097 C 15.642 39.862,14.787 39.833,7.799 39.833 L -0.033 39.833 0.025 44.778 C 0.069 48.543,0.133 49.739,0.292 49.792 C 0.406 49.830,0.500 50.117,0.500 50.431 C 0.500 50.744,0.575 51.000,0.667 51.000 C 0.758 51.000,0.833 51.150,0.833 51.333 C 0.833 51.517,0.908 51.667,1.000 51.667 C 1.092 51.667,1.167 51.814,1.167 51.994 C 1.167 52.397,1.678 53.500,1.864 53.500 C 1.939 53.500,2.000 53.633,2.000 53.797 C 2.000 53.960,2.150 54.201,2.333 54.333 C 2.517 54.465,2.667 54.635,2.667 54.709 C 2.667 54.784,2.910 55.100,3.208 55.413 C 3.506 55.726,3.938 56.200,4.167 56.466 C 4.396 56.732,4.831 57.077,5.133 57.233 C 5.654 57.502,6.098 57.825,6.590 58.292 C 6.711 58.406,6.927 58.500,7.071 58.500 C 7.215 58.500,7.333 58.575,7.333 58.667 C 7.333 58.758,7.483 58.833,7.667 58.833 C 7.850 58.833,8.000 58.908,8.000 59.000 C 8.000 59.092,8.150 59.167,8.333 59.167 C 8.517 59.167,8.667 59.230,8.667 59.308 C 8.667 59.485,10.233 60.000,10.769 60.000 C 10.988 60.000,11.167 60.075,11.167 60.167 C 11.167 60.258,11.429 60.333,11.750 60.333 C 12.071 60.333,12.333 60.408,12.333 60.500 C 12.333 60.592,12.627 60.667,12.986 60.667 C 13.360 60.667,13.669 60.756,13.708 60.875 C 13.809 61.178,27.555 61.178,27.858 60.875 C 27.973 60.760,28.314 60.667,28.617 60.667 C 28.919 60.667,29.167 60.592,29.167 60.500 C 29.167 60.408,29.467 60.333,29.833 60.333 C 30.200 60.333,30.500 60.258,30.500 60.167 C 30.500 60.075,30.641 60.000,30.814 60.000 C 31.186 60.000,32.880 59.479,33.000 59.328 C 33.046 59.271,33.327 59.117,33.625 58.988 C 33.923 58.858,34.167 58.695,34.167 58.626 C 34.167 58.557,34.300 58.500,34.463 58.500 C 34.626 58.500,34.868 58.350,35.000 58.167 C 35.132 57.983,35.374 57.833,35.537 57.833 C 35.700 57.833,35.834 57.777,35.834 57.708 C 35.835 57.640,36.114 57.396,36.454 57.167 C 37.169 56.685,38.333 55.532,38.333 55.305 C 38.333 55.220,38.521 54.977,38.750 54.765 C 38.979 54.552,39.167 54.256,39.167 54.106 C 39.167 53.956,39.242 53.833,39.333 53.833 C 39.425 53.833,39.500 53.718,39.500 53.576 C 39.500 53.435,39.650 53.158,39.833 52.962 C 40.017 52.765,40.167 52.468,40.167 52.302 C 40.167 52.136,40.223 52.000,40.293 52.000 C 40.443 52.000,40.833 50.808,40.833 50.350 C 40.833 50.173,40.909 50.003,41.001 49.972 C 41.095 49.941,41.217 48.972,41.277 47.791 C 41.336 46.623,41.448 45.667,41.526 45.667 C 41.711 45.667,41.709 41.213,41.523 41.098 C 41.445 41.049,41.341 40.351,41.292 39.546 C 41.206 38.105,40.873 36.667,40.626 36.667 C 40.557 36.667,40.500 36.521,40.500 36.343 C 40.500 36.165,40.425 35.973,40.333 35.917 C 40.242 35.860,40.167 35.685,40.167 35.527 C 40.167 35.369,40.017 35.132,39.833 35.000 C 39.650 34.868,39.500 34.643,39.500 34.500 C 39.500 34.357,39.350 34.132,39.167 34.000 C 38.983 33.868,38.833 33.672,38.833 33.565 C 38.833 33.346,36.084 30.500,35.872 30.500 C 35.798 30.500,35.405 30.200,35.000 29.833 C 34.595 29.467,34.183 29.167,34.085 29.167 C 33.987 29.167,33.799 29.017,33.667 28.833 C 33.535 28.650,33.340 28.500,33.234 28.500 C 33.128 28.500,32.947 28.387,32.833 28.250 C 32.719 28.112,32.519 28.000,32.389 28.000 C 32.259 28.000,32.005 27.862,31.824 27.693 C 31.643 27.525,31.289 27.281,31.039 27.152 C 30.788 27.023,30.546 26.880,30.500 26.834 C 30.241 26.573,28.141 25.500,27.892 25.500 C 27.768 25.500,27.667 25.437,27.667 25.360 C 27.667 25.282,27.310 25.040,26.875 24.820 C 26.440 24.601,26.046 24.377,26.000 24.322 C 25.954 24.268,25.673 24.117,25.375 23.988 C 25.077 23.858,24.833 23.704,24.833 23.645 C 24.833 23.585,24.571 23.488,24.250 23.428 C 23.929 23.367,23.667 23.247,23.667 23.159 C 23.667 23.072,23.551 23.000,23.410 23.000 C 23.268 23.000,22.992 22.850,22.795 22.667 C 22.598 22.483,22.339 22.333,22.219 22.333 C 22.098 22.333,22.000 22.258,22.000 22.167 C 22.000 22.075,21.850 22.000,21.667 22.000 C 21.483 22.000,21.333 21.925,21.333 21.833 C 21.333 21.742,21.221 21.667,21.083 21.667 C 20.946 21.667,20.833 21.603,20.833 21.525 C 20.833 21.448,20.533 21.249,20.167 21.083 C 19.800 20.918,19.500 20.719,19.500 20.641 C 19.500 20.564,19.367 20.500,19.203 20.500 C 19.040 20.500,18.799 20.350,18.667 20.167 C 18.535 19.983,18.366 19.833,18.292 19.833 C 18.218 19.833,17.829 19.504,17.427 19.102 C 17.024 18.700,16.628 18.343,16.546 18.310 C 15.789 18.004,15.126 14.254,15.643 13.206 C 16.442 11.588,16.794 11.180,17.762 10.758 C 18.122 10.601,18.547 10.403,18.706 10.319 C 19.082 10.121,21.585 10.121,21.961 10.319 C 22.120 10.403,22.550 10.602,22.917 10.760 C 23.283 10.919,23.696 11.195,23.833 11.373 C 23.971 11.552,24.252 11.875,24.458 12.091 C 24.665 12.308,24.833 12.601,24.833 12.742 C 24.833 12.884,24.908 13.000,25.000 13.000 C 25.092 13.000,25.167 13.338,25.167 13.750 C 25.167 14.162,25.242 14.500,25.333 14.500 C 25.436 14.500,25.500 15.333,25.500 16.667 L 25.500 18.833 32.833 18.833 L 40.167 18.833 40.167 15.083 C 40.167 12.694,40.106 11.333,40.000 11.333 C 39.908 11.333,39.833 10.996,39.833 10.583 C 39.833 10.171,39.758 9.833,39.667 9.833 C 39.575 9.833,39.500 9.608,39.500 9.333 C 39.500 9.058,39.425 8.833,39.333 8.833 C 39.242 8.833,39.167 8.646,39.167 8.417 C 39.167 8.188,39.092 8.000,39.000 8.000 C 38.908 8.000,38.833 7.867,38.833 7.705 C 38.833 7.543,38.646 7.135,38.417 6.798 C 38.187 6.460,38.000 6.143,38.000 6.093 C 38.000 5.885,35.356 3.333,35.141 3.333 C 35.012 3.333,34.799 3.183,34.667 3.000 C 34.535 2.817,34.293 2.667,34.130 2.667 C 33.967 2.667,33.833 2.592,33.833 2.500 C 33.833 2.408,33.721 2.333,33.583 2.333 C 33.446 2.333,33.333 2.258,33.333 2.167 C 33.333 2.075,33.183 2.000,33.000 2.000 C 32.817 2.000,32.667 1.942,32.667 1.870 C 32.667 1.727,30.901 1.167,30.450 1.167 C 30.294 1.167,30.167 1.092,30.167 1.000 C 30.167 0.908,29.867 0.833,29.500 0.833 C 29.133 0.833,28.833 0.758,28.833 0.667 C 28.833 0.575,28.502 0.500,28.097 0.500 C 27.683 0.500,27.333 0.415,27.296 0.305 C 27.230 0.107,18.087 -0.040,15.375 0.113 M200.500 0.115 C 199.996 0.154,199.512 0.256,199.425 0.343 C 199.338 0.429,198.982 0.500,198.633 0.500 C 198.285 0.500,198.000 0.575,198.000 0.667 C 198.000 0.758,197.737 0.833,197.417 0.833 C 197.096 0.833,196.833 0.908,196.833 1.000 C 196.833 1.092,196.638 1.167,196.400 1.167 C 196.162 1.167,195.693 1.287,195.359 1.434 C 193.889 2.081,192.667 2.728,192.667 2.858 C 192.667 2.936,192.533 3.000,192.370 3.000 C 192.207 3.000,191.965 3.150,191.833 3.333 C 191.701 3.517,191.511 3.667,191.411 3.667 C 191.140 3.667,189.279 5.498,188.912 6.125 C 188.737 6.423,188.536 6.667,188.464 6.667 C 188.392 6.667,188.333 6.765,188.333 6.885 C 188.333 7.005,188.183 7.265,188.000 7.462 C 187.817 7.658,187.667 7.935,187.667 8.076 C 187.667 8.218,187.592 8.333,187.500 8.333 C 187.408 8.333,187.333 8.483,187.333 8.667 C 187.333 8.850,187.258 9.000,187.167 9.000 C 187.075 9.000,187.000 9.151,187.000 9.336 C 187.000 9.520,186.935 9.801,186.856 9.961 C 186.450 10.774,186.301 11.606,186.214 13.547 C 186.161 14.718,186.054 15.716,185.976 15.765 C 185.790 15.880,185.790 17.120,185.976 17.235 C 186.054 17.283,186.162 18.094,186.215 19.037 C 186.303 20.606,186.470 21.432,186.856 22.206 C 186.935 22.365,187.000 22.609,187.000 22.748 C 187.000 22.886,187.075 23.000,187.167 23.000 C 187.258 23.000,187.333 23.113,187.333 23.250 C 187.333 23.387,187.408 23.500,187.500 23.500 C 187.592 23.500,187.667 23.650,187.667 23.833 C 187.667 24.017,187.742 24.167,187.833 24.167 C 187.925 24.167,188.000 24.280,188.000 24.418 C 188.000 24.557,188.225 24.905,188.500 25.193 C 188.775 25.481,189.000 25.783,189.000 25.865 C 189.000 26.059,191.849 28.833,192.048 28.833 C 192.131 28.833,192.410 29.058,192.667 29.333 C 192.924 29.608,193.254 29.833,193.400 29.833 C 193.547 29.833,193.667 29.897,193.667 29.974 C 193.667 30.051,193.929 30.256,194.250 30.428 C 194.571 30.601,194.833 30.800,194.833 30.871 C 194.833 30.942,194.932 31.000,195.052 31.000 C 195.172 31.000,195.416 31.131,195.594 31.292 C 195.771 31.452,196.123 31.690,196.375 31.820 C 196.627 31.950,196.833 32.119,196.833 32.195 C 196.833 32.271,196.946 32.333,197.083 32.333 C 197.221 32.333,197.333 32.408,197.333 32.500 C 197.333 32.592,197.421 32.667,197.527 32.667 C 197.838 32.667,199.000 33.218,199.000 33.365 C 199.000 33.439,199.112 33.500,199.250 33.500 C 199.387 33.500,199.500 33.575,199.500 33.667 C 199.500 33.758,199.650 33.833,199.833 33.833 C 200.017 33.833,200.167 33.908,200.167 34.000 C 200.167 34.092,200.317 34.167,200.500 34.167 C 200.683 34.167,200.833 34.242,200.833 34.333 C 200.833 34.425,200.940 34.500,201.069 34.500 C 201.199 34.500,201.331 34.556,201.361 34.625 C 201.449 34.822,203.099 35.667,203.398 35.667 C 203.546 35.667,203.667 35.742,203.667 35.833 C 203.667 35.925,203.745 36.000,203.840 36.000 C 203.936 36.000,204.175 36.150,204.372 36.333 C 204.569 36.517,204.828 36.667,204.948 36.667 C 205.068 36.667,205.167 36.742,205.167 36.833 C 205.167 36.925,205.282 37.000,205.424 37.000 C 205.565 37.000,205.845 37.153,206.045 37.340 C 206.246 37.527,206.593 37.725,206.816 37.781 C 207.039 37.838,207.446 38.097,207.719 38.358 C 207.992 38.620,208.283 38.833,208.366 38.833 C 208.448 38.833,208.686 39.002,208.894 39.208 C 209.103 39.415,209.482 39.733,209.736 39.917 C 210.565 40.513,211.167 41.128,211.167 41.380 C 211.167 41.515,211.279 41.719,211.417 41.833 C 211.554 41.947,211.667 42.144,211.667 42.270 C 211.667 42.397,211.742 42.500,211.833 42.500 C 211.925 42.500,212.000 42.650,212.000 42.833 C 212.000 43.017,212.075 43.167,212.167 43.167 C 212.584 43.167,212.272 47.269,211.825 47.667 C 211.773 47.712,211.633 47.992,211.514 48.287 C 211.229 48.991,210.778 49.500,210.439 49.500 C 210.289 49.500,210.167 49.575,210.167 49.667 C 210.167 49.758,210.060 49.833,209.931 49.833 C 209.801 49.833,209.663 49.927,209.625 50.042 C 209.493 50.437,204.506 50.326,204.023 49.917 C 203.098 49.132,202.333 48.347,202.333 48.180 C 202.333 48.081,202.258 48.000,202.167 48.000 C 202.075 48.000,202.000 47.850,202.000 47.667 C 202.000 47.483,201.925 47.333,201.833 47.333 C 201.742 47.333,201.667 47.075,201.667 46.760 C 201.667 46.444,201.592 46.140,201.500 46.083 C 201.399 46.021,201.333 44.776,201.333 42.907 L 201.333 39.833 193.417 39.833 L 185.500 39.833 185.500 43.083 C 185.500 45.139,185.561 46.333,185.667 46.333 C 185.763 46.333,185.833 46.861,185.833 47.583 C 185.833 48.271,185.898 48.833,185.977 48.833 C 186.056 48.833,186.170 49.248,186.229 49.756 C 186.289 50.263,186.423 50.844,186.528 51.047 C 186.931 51.829,187.000 52.003,187.000 52.248 C 187.000 52.386,187.075 52.500,187.167 52.500 C 187.258 52.500,187.333 52.633,187.333 52.797 C 187.333 52.960,187.483 53.201,187.667 53.333 C 187.850 53.465,188.000 53.690,188.000 53.833 C 188.000 53.976,188.150 54.201,188.333 54.333 C 188.517 54.465,188.667 54.656,188.667 54.756 C 188.667 55.026,190.498 56.888,191.125 57.255 C 191.423 57.429,191.667 57.631,191.667 57.703 C 191.667 57.775,191.782 57.833,191.924 57.833 C 192.065 57.833,192.342 57.983,192.538 58.167 C 192.735 58.350,192.995 58.500,193.115 58.500 C 193.235 58.500,193.333 58.575,193.333 58.667 C 193.333 58.758,193.483 58.833,193.667 58.833 C 193.850 58.833,194.000 58.908,194.000 59.000 C 194.000 59.092,194.114 59.167,194.252 59.167 C 194.391 59.167,194.654 59.242,194.836 59.333 C 195.018 59.425,195.318 59.577,195.504 59.670 C 195.689 59.764,196.176 59.887,196.587 59.943 C 196.997 59.999,197.333 60.110,197.333 60.189 C 197.333 60.269,197.633 60.333,198.000 60.333 C 198.367 60.333,198.667 60.408,198.667 60.500 C 198.667 60.592,198.998 60.667,199.403 60.667 C 199.844 60.667,200.167 60.750,200.208 60.875 C 200.310 61.179,213.024 61.179,213.125 60.875 C 213.166 60.751,213.488 60.667,213.921 60.667 C 214.320 60.667,214.693 60.592,214.750 60.500 C 214.807 60.408,215.111 60.333,215.427 60.333 C 215.742 60.333,216.000 60.269,216.000 60.189 C 216.000 60.110,216.336 59.999,216.746 59.943 C 217.157 59.887,217.626 59.769,217.788 59.681 C 217.950 59.594,218.327 59.424,218.625 59.304 C 218.923 59.184,219.167 59.029,219.167 58.959 C 219.167 58.890,219.317 58.833,219.500 58.833 C 219.683 58.833,219.833 58.758,219.833 58.667 C 219.833 58.575,219.983 58.500,220.167 58.500 C 220.350 58.500,220.500 58.425,220.500 58.333 C 220.500 58.242,220.596 58.167,220.713 58.167 C 220.830 58.167,221.035 58.017,221.167 57.833 C 221.299 57.650,221.529 57.500,221.678 57.500 C 222.017 57.500,224.500 55.045,224.500 54.709 C 224.500 54.635,224.650 54.465,224.833 54.333 C 225.017 54.201,225.167 53.994,225.167 53.873 C 225.167 53.752,225.305 53.504,225.474 53.323 C 225.643 53.141,225.921 52.563,226.092 52.038 C 226.262 51.513,226.461 51.012,226.534 50.925 C 226.607 50.838,226.667 50.519,226.667 50.217 C 226.667 49.914,226.742 49.667,226.833 49.667 C 226.925 49.667,227.000 49.254,227.000 48.750 C 227.000 48.246,227.075 47.833,227.167 47.833 C 227.269 47.833,227.333 47.039,227.333 45.783 C 227.333 44.437,227.400 43.666,227.529 43.538 C 227.678 43.388,227.678 43.242,227.529 42.913 C 227.419 42.673,227.333 41.722,227.333 40.752 C 227.333 39.777,227.260 38.975,227.167 38.917 C 227.075 38.860,227.000 38.556,227.000 38.240 C 227.000 37.925,226.925 37.667,226.833 37.667 C 226.742 37.667,226.667 37.442,226.667 37.167 C 226.667 36.892,226.607 36.667,226.535 36.667 C 226.462 36.667,226.314 36.337,226.206 35.934 C 226.099 35.531,225.896 35.086,225.755 34.946 C 225.615 34.805,225.500 34.589,225.500 34.465 C 225.500 34.342,225.350 34.132,225.167 34.000 C 224.983 33.868,224.833 33.699,224.833 33.625 C 224.833 33.324,221.698 30.167,221.399 30.167 C 221.345 30.167,221.090 29.942,220.833 29.667 C 220.576 29.392,220.274 29.167,220.161 29.167 C 220.048 29.167,219.833 29.035,219.684 28.875 C 219.359 28.526,218.859 28.194,218.458 28.059 C 218.298 28.005,218.167 27.895,218.167 27.814 C 218.167 27.733,218.054 27.667,217.917 27.667 C 217.779 27.667,217.667 27.592,217.667 27.500 C 217.667 27.408,217.551 27.333,217.410 27.333 C 217.268 27.333,216.992 27.183,216.795 27.000 C 216.598 26.817,216.226 26.574,215.969 26.459 C 215.711 26.345,215.500 26.195,215.500 26.126 C 215.500 26.057,215.359 26.000,215.187 26.000 C 215.015 26.000,214.781 25.887,214.667 25.750 C 214.553 25.613,214.318 25.500,214.146 25.500 C 213.974 25.500,213.833 25.425,213.833 25.333 C 213.833 25.242,213.721 25.167,213.583 25.167 C 213.446 25.167,213.333 25.092,213.333 25.000 C 213.333 24.908,213.183 24.833,213.000 24.833 C 212.817 24.833,212.667 24.758,212.667 24.667 C 212.667 24.575,212.517 24.500,212.333 24.500 C 212.150 24.500,212.000 24.425,212.000 24.333 C 212.000 24.242,211.850 24.167,211.667 24.167 C 211.483 24.167,211.333 24.092,211.333 24.000 C 211.333 23.908,211.221 23.833,211.083 23.833 C 210.946 23.833,210.833 23.764,210.833 23.680 C 210.833 23.596,210.608 23.477,210.333 23.417 C 210.058 23.356,209.833 23.238,209.833 23.153 C 209.833 23.069,209.683 23.000,209.500 23.000 C 209.317 23.000,209.167 22.939,209.167 22.864 C 209.167 22.790,208.904 22.626,208.583 22.500 C 208.262 22.374,208.000 22.210,208.000 22.136 C 208.000 22.061,207.884 22.000,207.743 22.000 C 207.602 22.000,207.325 21.850,207.128 21.667 C 206.931 21.483,206.672 21.333,206.552 21.333 C 206.432 21.333,206.333 21.266,206.333 21.185 C 206.333 21.103,206.146 20.989,205.917 20.932 C 205.688 20.874,205.500 20.753,205.500 20.663 C 205.500 20.574,205.385 20.500,205.244 20.500 C 204.993 20.500,204.866 20.403,203.653 19.294 C 203.324 18.994,202.819 18.561,202.529 18.333 C 202.240 18.104,202.002 17.785,202.002 17.625 C 202.001 17.465,201.943 17.333,201.874 17.333 C 201.349 17.333,200.961 13.207,201.471 13.038 C 201.579 13.002,201.667 12.828,201.667 12.653 C 201.667 12.477,201.742 12.333,201.833 12.333 C 201.925 12.333,202.000 12.217,202.000 12.076 C 202.000 11.700,202.707 11.054,203.488 10.716 C 203.861 10.554,204.167 10.364,204.167 10.294 C 204.167 10.101,207.963 10.139,208.083 10.333 C 208.140 10.425,208.331 10.500,208.507 10.500 C 208.928 10.500,210.833 12.400,210.833 12.820 C 210.833 13.000,210.908 13.193,211.000 13.250 C 211.099 13.311,211.167 14.391,211.167 15.927 L 211.167 18.500 218.673 18.500 L 226.180 18.500 226.106 15.208 C 226.029 11.768,225.904 10.358,225.651 10.092 C 225.568 10.005,225.500 9.775,225.500 9.581 C 225.500 9.225,225.031 8.095,224.567 7.333 C 224.427 7.104,224.271 6.785,224.220 6.625 C 224.169 6.465,224.062 6.333,223.981 6.333 C 223.900 6.333,223.833 6.231,223.833 6.106 C 223.833 5.856,221.998 3.945,221.250 3.417 C 220.991 3.233,220.684 2.990,220.568 2.875 C 220.452 2.760,220.274 2.667,220.172 2.667 C 220.070 2.667,219.825 2.517,219.628 2.333 C 219.431 2.150,219.185 2.000,219.080 2.000 C 218.975 2.000,218.521 1.813,218.070 1.584 C 217.619 1.355,217.044 1.168,216.792 1.167 C 216.540 1.167,216.333 1.092,216.333 1.000 C 216.333 0.908,216.071 0.833,215.750 0.833 C 215.429 0.833,215.167 0.758,215.167 0.667 C 215.167 0.575,214.873 0.500,214.514 0.500 C 214.140 0.500,213.831 0.411,213.792 0.292 C 213.723 0.085,202.774 -0.061,200.500 0.115 M375.167 0.333 C 375.167 0.427,374.694 0.500,374.083 0.500 C 373.472 0.500,373.000 0.573,373.000 0.667 C 373.000 0.758,372.662 0.833,372.250 0.833 C 371.837 0.833,371.500 0.900,371.500 0.981 C 371.500 1.062,371.089 1.180,370.586 1.242 C 370.083 1.305,369.629 1.426,369.576 1.512 C 369.523 1.597,369.297 1.667,369.073 1.667 C 368.850 1.667,368.667 1.742,368.667 1.833 C 368.667 1.925,368.517 2.000,368.333 2.000 C 368.150 2.000,368.000 2.075,368.000 2.167 C 368.000 2.258,367.902 2.333,367.783 2.333 C 367.477 2.333,366.670 2.725,366.668 2.875 C 366.667 2.944,366.554 3.000,366.417 3.000 C 366.279 3.000,366.167 3.075,366.167 3.167 C 366.167 3.258,366.051 3.333,365.910 3.333 C 365.669 3.333,365.501 3.440,364.923 3.958 C 364.795 4.073,364.646 4.167,364.592 4.167 C 364.442 4.167,362.333 6.308,362.333 6.460 C 362.333 6.533,362.183 6.701,362.000 6.833 C 361.817 6.965,361.667 7.175,361.667 7.299 C 361.667 7.423,361.554 7.636,361.417 7.774 C 361.279 7.911,361.167 8.168,361.167 8.345 C 361.167 8.522,361.092 8.667,361.000 8.667 C 360.908 8.667,360.833 8.779,360.833 8.917 C 360.833 9.054,360.758 9.167,360.667 9.167 C 360.575 9.167,360.500 9.392,360.500 9.667 C 360.500 9.942,360.425 10.167,360.333 10.167 C 360.242 10.167,360.167 10.350,360.167 10.573 C 360.167 10.797,360.092 11.027,360.000 11.083 C 359.908 11.140,359.833 11.365,359.833 11.583 C 359.833 11.802,359.758 12.027,359.667 12.083 C 359.575 12.140,359.500 12.552,359.500 13.000 C 359.500 13.448,359.425 13.860,359.333 13.917 C 359.118 14.050,359.102 46.699,359.317 46.925 C 359.400 47.012,359.509 47.421,359.559 47.833 C 359.730 49.226,359.869 49.833,360.018 49.833 C 360.100 49.833,360.167 50.021,360.167 50.250 C 360.167 50.479,360.242 50.667,360.333 50.667 C 360.425 50.667,360.500 50.817,360.500 51.000 C 360.500 51.183,360.575 51.333,360.667 51.333 C 360.758 51.333,360.833 51.477,360.833 51.653 C 360.833 51.828,360.890 51.997,360.958 52.028 C 361.027 52.058,361.233 52.381,361.417 52.746 C 361.600 53.110,361.938 53.626,362.167 53.891 C 362.951 54.799,363.807 55.667,363.920 55.667 C 363.982 55.667,364.232 55.873,364.475 56.125 C 364.718 56.377,365.123 56.690,365.375 56.820 C 365.627 56.950,365.833 57.119,365.833 57.195 C 365.833 57.271,365.908 57.333,365.999 57.333 C 366.283 57.333,367.500 57.905,367.500 58.039 C 367.500 58.109,367.688 58.167,367.917 58.167 C 368.146 58.167,368.333 58.242,368.333 58.333 C 368.333 58.425,368.483 58.500,368.667 58.500 C 368.850 58.500,369.000 58.575,369.000 58.667 C 369.000 58.758,369.188 58.833,369.417 58.833 C 369.646 58.833,369.833 58.900,369.833 58.982 C 369.833 59.063,370.077 59.169,370.375 59.216 C 370.673 59.264,371.217 59.391,371.583 59.498 C 372.668 59.818,373.834 59.975,375.208 59.988 C 375.950 59.995,376.500 60.071,376.500 60.167 C 376.500 60.272,377.694 60.333,379.750 60.333 C 381.806 60.333,383.000 60.272,383.000 60.167 C 383.000 60.072,383.522 59.995,384.208 59.988 C 384.873 59.981,385.829 59.903,386.333 59.814 C 386.837 59.725,387.494 59.610,387.793 59.558 C 388.092 59.506,388.378 59.396,388.428 59.315 C 388.478 59.233,388.740 59.167,389.010 59.167 C 389.279 59.167,389.500 59.092,389.500 59.000 C 389.500 58.908,389.725 58.833,390.000 58.833 C 390.275 58.833,390.500 58.758,390.500 58.667 C 390.500 58.575,390.650 58.500,390.833 58.500 C 391.017 58.500,391.167 58.425,391.167 58.333 C 391.167 58.242,391.286 58.167,391.433 58.167 C 391.579 58.167,391.902 58.022,392.151 57.844 C 392.400 57.667,392.800 57.473,393.040 57.413 C 393.279 57.353,393.605 57.160,393.764 56.985 C 393.922 56.810,394.114 56.667,394.190 56.667 C 394.427 56.667,396.993 54.343,396.997 54.123 C 396.999 54.054,397.225 53.762,397.500 53.474 C 397.775 53.186,398.000 52.849,398.000 52.725 C 398.000 52.601,398.057 52.500,398.127 52.500 C 398.282 52.500,398.833 51.263,398.833 50.916 C 398.833 50.779,398.908 50.667,399.000 50.667 C 399.092 50.667,399.167 50.479,399.167 50.250 C 399.167 50.021,399.242 49.833,399.333 49.833 C 399.425 49.833,399.500 49.623,399.500 49.367 C 399.500 49.110,399.594 48.806,399.708 48.692 C 399.870 48.531,399.929 46.022,399.969 37.575 L 400.022 26.667 389.758 26.667 L 379.494 26.667 379.539 31.042 L 379.583 35.417 382.375 35.462 L 385.167 35.508 385.167 40.754 C 385.167 44.140,385.108 46.000,385.000 46.000 C 384.908 46.000,384.833 46.150,384.833 46.333 C 384.833 46.517,384.758 46.667,384.667 46.667 C 384.575 46.667,384.500 46.788,384.500 46.936 C 384.500 47.570,382.330 49.167,381.469 49.167 C 381.303 49.167,381.167 49.242,381.167 49.333 C 381.167 49.433,380.528 49.500,379.583 49.500 C 378.639 49.500,378.000 49.433,378.000 49.333 C 378.000 49.242,377.775 49.167,377.500 49.167 C 377.225 49.167,377.000 49.092,377.000 49.000 C 377.000 48.908,376.882 48.833,376.738 48.833 C 376.594 48.833,376.381 48.740,376.266 48.625 C 376.150 48.510,375.855 48.268,375.611 48.085 C 375.367 47.903,375.167 47.676,375.167 47.581 C 375.167 47.485,375.017 47.299,374.833 47.167 C 374.650 47.035,374.500 46.793,374.500 46.630 C 374.500 46.467,374.425 46.333,374.333 46.333 C 374.242 46.333,374.167 46.071,374.167 45.750 C 374.167 45.429,374.092 45.167,374.000 45.167 C 373.890 45.167,373.833 40.139,373.833 30.417 C 373.833 20.694,373.890 15.667,374.000 15.667 C 374.092 15.667,374.167 15.404,374.167 15.083 C 374.167 14.762,374.242 14.500,374.333 14.500 C 374.425 14.500,374.500 14.292,374.500 14.037 C 374.500 13.765,374.638 13.474,374.833 13.333 C 375.017 13.201,375.167 13.031,375.167 12.956 C 375.167 12.777,375.944 12.000,376.122 12.000 C 376.198 12.000,376.368 11.850,376.500 11.667 C 376.638 11.475,376.931 11.333,377.190 11.333 C 377.437 11.333,377.665 11.254,377.698 11.157 C 377.778 10.916,381.555 10.916,381.636 11.157 C 381.668 11.254,381.838 11.333,382.014 11.333 C 382.190 11.333,382.333 11.408,382.333 11.500 C 382.333 11.592,382.453 11.667,382.600 11.667 C 383.148 11.667,384.833 13.884,384.833 14.606 C 384.833 14.812,384.908 15.027,385.000 15.083 C 385.100 15.145,385.167 16.252,385.167 17.843 L 385.167 20.500 392.605 20.500 L 400.043 20.500 399.968 16.302 C 399.914 13.282,399.838 12.085,399.697 12.038 C 399.588 12.002,399.500 11.716,399.500 11.403 C 399.500 11.090,399.425 10.833,399.333 10.833 C 399.242 10.833,399.167 10.608,399.167 10.333 C 399.167 10.058,399.107 9.833,399.035 9.833 C 398.962 9.833,398.814 9.504,398.706 9.100 C 398.599 8.697,398.396 8.253,398.255 8.112 C 398.115 7.972,398.000 7.778,398.000 7.680 C 398.000 7.263,394.814 3.833,394.426 3.833 C 394.312 3.833,394.001 3.645,393.734 3.414 C 393.468 3.184,393.044 2.903,392.792 2.790 C 392.540 2.678,392.333 2.529,392.333 2.459 C 392.333 2.390,392.183 2.333,392.000 2.333 C 391.817 2.333,391.667 2.258,391.667 2.167 C 391.667 2.075,391.479 2.000,391.250 2.000 C 391.021 2.000,390.833 1.942,390.833 1.870 C 390.833 1.700,389.027 1.167,388.450 1.167 C 388.203 1.167,388.000 1.092,388.000 1.000 C 388.000 0.908,387.625 0.833,387.167 0.833 C 386.708 0.833,386.333 0.758,386.333 0.667 C 386.333 0.573,385.861 0.500,385.250 0.500 C 384.639 0.500,384.167 0.427,384.167 0.333 C 384.167 0.226,382.556 0.167,379.667 0.167 C 376.778 0.167,375.167 0.226,375.167 0.333 M60.833 2.500 C 60.833 2.958,60.758 3.333,60.667 3.333 C 60.575 3.333,60.500 3.671,60.500 4.083 C 60.500 4.496,60.425 4.833,60.333 4.833 C 60.242 4.833,60.167 5.204,60.167 5.657 C 60.167 6.110,60.092 6.527,60.000 6.583 C 59.908 6.640,59.833 7.057,59.833 7.510 C 59.833 7.963,59.758 8.333,59.667 8.333 C 59.575 8.333,59.500 8.666,59.500 9.073 C 59.500 9.481,59.425 9.860,59.333 9.917 C 59.242 9.973,59.167 10.386,59.167 10.833 C 59.167 11.281,59.100 11.688,59.018 11.739 C 58.936 11.790,58.815 12.507,58.750 13.332 C 58.685 14.158,58.564 14.833,58.482 14.833 C 58.400 14.833,58.333 15.246,58.333 15.750 C 58.333 16.254,58.258 16.667,58.167 16.667 C 58.075 16.667,58.000 17.042,58.000 17.500 C 58.000 17.958,57.925 18.333,57.833 18.333 C 57.742 18.333,57.667 18.704,57.667 19.157 C 57.667 19.610,57.592 20.027,57.500 20.083 C 57.408 20.140,57.333 20.519,57.333 20.927 C 57.333 21.334,57.258 21.667,57.167 21.667 C 57.075 21.667,57.000 22.037,57.000 22.490 C 57.000 22.943,56.925 23.360,56.833 23.417 C 56.742 23.473,56.667 23.886,56.667 24.333 C 56.667 24.781,56.597 25.190,56.512 25.242 C 56.427 25.295,56.305 26.012,56.241 26.836 C 56.176 27.659,56.058 28.333,55.979 28.333 C 55.899 28.333,55.833 28.746,55.833 29.250 C 55.833 29.754,55.758 30.167,55.667 30.167 C 55.575 30.167,55.500 30.504,55.500 30.917 C 55.500 31.329,55.425 31.667,55.333 31.667 C 55.242 31.667,55.167 32.079,55.167 32.583 C 55.167 33.087,55.092 33.500,55.000 33.500 C 54.908 33.500,54.833 33.875,54.833 34.333 C 54.833 34.792,54.766 35.167,54.683 35.167 C 54.600 35.167,54.489 35.523,54.437 35.958 C 54.190 38.017,54.122 38.428,53.999 38.583 C 53.926 38.675,53.813 39.407,53.747 40.211 C 53.681 41.014,53.561 41.712,53.480 41.762 C 53.399 41.812,53.333 42.224,53.333 42.677 C 53.333 43.129,53.258 43.500,53.167 43.500 C 53.075 43.500,53.000 43.875,53.000 44.333 C 53.000 44.792,52.925 45.167,52.833 45.167 C 52.742 45.167,52.667 45.537,52.667 45.990 C 52.667 46.443,52.592 46.860,52.500 46.917 C 52.408 46.973,52.333 47.348,52.333 47.750 C 52.333 48.152,52.258 48.527,52.167 48.583 C 52.075 48.640,52.000 49.015,52.000 49.417 C 52.000 49.818,51.925 50.193,51.833 50.250 C 51.742 50.307,51.667 50.719,51.667 51.167 C 51.667 51.614,51.597 52.023,51.512 52.076 C 51.427 52.128,51.305 52.847,51.241 53.673 C 51.176 54.498,51.058 55.214,50.978 55.263 C 50.899 55.313,50.833 55.724,50.833 56.177 C 50.833 56.629,50.758 57.000,50.667 57.000 C 50.575 57.000,50.500 57.322,50.500 57.717 C 50.500 58.111,50.407 58.526,50.293 58.640 C 49.829 59.104,50.721 59.162,58.458 59.164 L 66.333 59.167 66.333 58.500 C 66.333 58.133,66.408 57.833,66.500 57.833 C 66.594 57.833,66.667 57.361,66.667 56.750 C 66.667 56.139,66.739 55.667,66.833 55.667 C 66.925 55.667,67.000 55.259,67.000 54.760 C 67.000 54.261,67.075 53.807,67.167 53.750 C 67.258 53.693,67.333 53.201,67.333 52.657 C 67.333 52.108,67.408 51.667,67.500 51.667 C 67.594 51.667,67.667 51.194,67.667 50.583 C 67.667 49.972,67.739 49.500,67.833 49.500 C 67.926 49.500,68.000 49.059,68.000 48.510 C 68.000 47.965,68.075 47.473,68.167 47.417 C 68.258 47.360,68.333 46.883,68.333 46.357 C 68.333 45.831,68.404 45.329,68.489 45.242 C 68.575 45.155,68.699 44.240,68.763 43.208 C 68.828 42.177,68.945 41.333,69.024 41.333 C 69.102 41.333,69.167 40.846,69.167 40.250 C 69.167 39.639,69.239 39.167,69.333 39.167 C 69.425 39.167,69.500 38.759,69.500 38.260 C 69.500 37.761,69.575 37.307,69.667 37.250 C 69.758 37.193,69.833 36.716,69.833 36.190 C 69.833 35.664,69.902 35.162,69.985 35.075 C 70.069 34.988,70.181 34.485,70.235 33.958 C 70.289 33.431,70.377 32.569,70.431 32.042 C 70.485 31.515,70.598 31.012,70.681 30.925 C 70.765 30.838,70.833 30.336,70.833 29.810 C 70.833 29.284,70.901 28.811,70.984 28.760 C 71.066 28.709,71.188 27.805,71.254 26.750 C 71.319 25.696,71.439 24.833,71.520 24.833 C 71.601 24.833,71.667 24.388,71.667 23.843 C 71.667 23.299,71.742 22.807,71.833 22.750 C 71.925 22.693,72.000 22.201,72.000 21.657 C 72.000 21.108,72.074 20.667,72.167 20.667 C 72.261 20.667,72.333 20.194,72.333 19.583 C 72.333 18.987,72.402 18.500,72.485 18.500 C 72.569 18.500,72.680 18.069,72.732 17.542 C 72.784 17.015,72.872 16.133,72.928 15.583 C 72.984 15.033,73.098 14.512,73.181 14.425 C 73.265 14.338,73.333 13.836,73.333 13.310 C 73.333 12.784,73.401 12.311,73.484 12.260 C 73.566 12.209,73.688 11.306,73.753 10.253 C 73.876 8.283,74.167 7.754,74.167 9.500 C 74.167 10.039,74.242 10.527,74.333 10.583 C 74.425 10.640,74.500 11.127,74.500 11.667 C 74.500 12.206,74.575 12.693,74.667 12.750 C 74.758 12.807,74.833 13.294,74.833 13.833 C 74.833 14.373,74.908 14.860,75.000 14.917 C 75.092 14.973,75.167 15.465,75.167 16.010 C 75.167 16.559,75.241 17.000,75.333 17.000 C 75.427 17.000,75.500 17.472,75.500 18.083 C 75.500 18.694,75.573 19.167,75.667 19.167 C 75.761 19.167,75.833 19.639,75.833 20.250 C 75.833 20.846,75.899 21.333,75.979 21.333 C 76.058 21.333,76.178 22.233,76.243 23.333 C 76.309 24.432,76.431 25.374,76.515 25.426 C 76.598 25.477,76.667 25.961,76.667 26.500 C 76.667 27.039,76.742 27.527,76.833 27.583 C 76.925 27.640,77.000 28.127,77.000 28.667 C 77.000 29.206,77.075 29.693,77.167 29.750 C 77.258 29.807,77.333 30.294,77.333 30.833 C 77.333 31.373,77.408 31.860,77.500 31.917 C 77.592 31.973,77.667 32.461,77.667 33.000 C 77.667 33.539,77.742 34.027,77.833 34.083 C 77.925 34.140,78.000 34.627,78.000 35.167 C 78.000 35.706,78.075 36.193,78.167 36.250 C 78.258 36.307,78.333 36.761,78.333 37.260 C 78.333 37.759,78.399 38.167,78.480 38.167 C 78.561 38.167,78.681 39.104,78.747 40.251 C 78.813 41.397,78.934 42.376,79.017 42.427 C 79.099 42.478,79.167 42.961,79.167 43.500 C 79.167 44.039,79.242 44.527,79.333 44.583 C 79.425 44.640,79.500 45.127,79.500 45.667 C 79.500 46.206,79.575 46.693,79.667 46.750 C 79.758 46.807,79.833 47.299,79.833 47.843 C 79.833 48.392,79.908 48.833,80.000 48.833 C 80.094 48.833,80.167 49.306,80.167 49.917 C 80.167 50.528,80.239 51.000,80.333 51.000 C 80.427 51.000,80.500 51.472,80.500 52.083 C 80.500 52.694,80.573 53.167,80.667 53.167 C 80.761 53.167,80.833 53.639,80.833 54.250 C 80.833 54.846,80.897 55.333,80.975 55.333 C 81.054 55.333,81.169 56.133,81.232 57.111 C 81.296 58.088,81.386 58.951,81.434 59.027 C 81.481 59.104,85.078 59.167,89.427 59.167 L 97.333 59.167 97.333 58.083 C 97.333 57.472,97.261 57.000,97.167 57.000 C 97.075 57.000,97.000 56.625,97.000 56.167 C 97.000 55.708,96.925 55.333,96.833 55.333 C 96.742 55.333,96.667 54.958,96.667 54.500 C 96.667 54.042,96.601 53.667,96.520 53.667 C 96.439 53.667,96.320 52.954,96.254 52.084 C 96.189 51.213,96.068 50.458,95.984 50.407 C 95.901 50.356,95.833 49.948,95.833 49.500 C 95.833 49.052,95.758 48.640,95.667 48.583 C 95.575 48.527,95.500 48.147,95.500 47.740 C 95.500 47.333,95.425 47.000,95.333 47.000 C 95.242 47.000,95.167 46.629,95.167 46.177 C 95.167 45.724,95.092 45.307,95.000 45.250 C 94.908 45.193,94.833 44.776,94.833 44.323 C 94.833 43.871,94.758 43.500,94.667 43.500 C 94.575 43.500,94.500 43.167,94.500 42.760 C 94.500 42.353,94.425 41.973,94.333 41.917 C 94.242 41.860,94.167 41.443,94.167 40.990 C 94.167 40.537,94.105 40.167,94.029 40.167 C 93.953 40.167,93.801 39.398,93.692 38.458 C 93.582 37.519,93.449 36.394,93.397 35.958 C 93.344 35.523,93.233 35.167,93.151 35.167 C 93.068 35.167,93.000 34.796,93.000 34.343 C 93.000 33.890,92.925 33.473,92.833 33.417 C 92.742 33.360,92.667 32.943,92.667 32.490 C 92.667 32.037,92.592 31.667,92.500 31.667 C 92.408 31.667,92.333 31.334,92.333 30.927 C 92.333 30.519,92.258 30.140,92.167 30.083 C 92.075 30.027,92.000 29.610,92.000 29.157 C 92.000 28.704,91.925 28.333,91.833 28.333 C 91.742 28.333,91.667 27.958,91.667 27.500 C 91.667 27.042,91.602 26.667,91.524 26.667 C 91.445 26.667,91.329 25.973,91.265 25.125 C 91.201 24.277,91.078 23.512,90.991 23.425 C 90.904 23.338,90.833 22.911,90.833 22.477 C 90.833 22.042,90.758 21.640,90.667 21.583 C 90.575 21.527,90.500 21.110,90.500 20.657 C 90.500 20.204,90.425 19.833,90.333 19.833 C 90.242 19.833,90.167 19.496,90.167 19.083 C 90.167 18.671,90.092 18.333,90.000 18.333 C 89.908 18.333,89.833 17.925,89.833 17.427 C 89.833 16.928,89.758 16.473,89.667 16.417 C 89.575 16.360,89.500 15.981,89.500 15.573 C 89.500 15.166,89.425 14.833,89.333 14.833 C 89.242 14.833,89.167 14.421,89.167 13.917 C 89.167 13.412,89.101 13.000,89.021 13.000 C 88.942 13.000,88.824 12.326,88.759 11.502 C 88.695 10.678,88.573 9.961,88.488 9.909 C 88.403 9.857,88.333 9.448,88.333 9.000 C 88.333 8.552,88.258 8.140,88.167 8.083 C 88.075 8.027,88.000 7.652,88.000 7.250 C 88.000 6.848,87.925 6.473,87.833 6.417 C 87.742 6.360,87.667 5.948,87.667 5.500 C 87.667 5.052,87.592 4.640,87.500 4.583 C 87.408 4.527,87.333 4.147,87.333 3.740 C 87.333 3.333,87.258 3.000,87.167 3.000 C 87.075 3.000,87.000 2.700,87.000 2.333 L 87.000 1.667 73.917 1.667 L 60.833 1.667 60.833 2.500 M109.421 5.624 C 108.895 28.730,108.706 39.012,108.685 45.708 C 108.673 49.557,108.608 51.667,108.500 51.667 C 108.394 51.667,108.333 53.028,108.333 55.417 L 108.333 59.167 115.823 59.167 L 123.313 59.167 123.412 41.375 C 123.467 31.590,123.565 20.621,123.631 17.000 C 123.744 10.729,123.782 10.415,124.102 13.042 C 124.155 13.477,124.267 13.833,124.349 13.833 C 124.432 13.833,124.500 14.208,124.500 14.667 C 124.500 15.125,124.575 15.500,124.667 15.500 C 124.758 15.500,124.833 15.871,124.833 16.323 C 124.833 16.776,124.908 17.193,125.000 17.250 C 125.092 17.307,125.167 17.686,125.167 18.093 C 125.167 18.500,125.242 18.833,125.333 18.833 C 125.425 18.833,125.500 19.204,125.500 19.657 C 125.500 20.110,125.575 20.527,125.667 20.583 C 125.758 20.640,125.833 21.057,125.833 21.510 C 125.833 21.963,125.896 22.333,125.973 22.333 C 126.051 22.333,126.202 23.065,126.311 23.958 C 126.668 26.901,126.698 27.082,126.849 27.242 C 126.932 27.329,127.000 27.718,127.000 28.107 C 127.000 28.496,127.075 28.860,127.167 28.917 C 127.258 28.973,127.333 29.390,127.333 29.843 C 127.333 30.296,127.408 30.667,127.500 30.667 C 127.592 30.667,127.667 31.042,127.667 31.500 C 127.667 31.958,127.742 32.333,127.833 32.333 C 127.925 32.333,128.000 32.704,128.000 33.157 C 128.000 33.610,128.075 34.027,128.167 34.083 C 128.258 34.140,128.333 34.519,128.333 34.927 C 128.333 35.334,128.395 35.667,128.471 35.667 C 128.547 35.667,128.699 36.435,128.808 37.375 C 128.918 38.315,129.051 39.440,129.103 39.875 C 129.156 40.310,129.267 40.667,129.349 40.667 C 129.432 40.667,129.500 41.042,129.500 41.500 C 129.500 41.958,129.575 42.333,129.667 42.333 C 129.758 42.333,129.833 42.746,129.833 43.250 C 129.833 43.754,129.908 44.167,130.000 44.167 C 130.092 44.167,130.167 44.504,130.167 44.917 C 130.167 45.329,130.242 45.667,130.333 45.667 C 130.425 45.667,130.500 46.079,130.500 46.583 C 130.500 47.087,130.575 47.500,130.667 47.500 C 130.758 47.500,130.833 47.875,130.833 48.333 C 130.833 48.792,130.896 49.167,130.973 49.167 C 131.051 49.167,131.202 49.898,131.311 50.792 C 131.668 53.734,131.698 53.915,131.849 54.075 C 131.932 54.162,132.000 54.551,132.000 54.940 C 132.000 55.329,132.075 55.693,132.167 55.750 C 132.258 55.807,132.333 56.224,132.333 56.677 C 132.333 57.129,132.408 57.500,132.500 57.500 C 132.592 57.500,132.667 57.875,132.667 58.333 L 132.667 59.167 140.333 59.167 L 148.000 59.167 148.000 58.700 C 148.000 58.443,148.068 58.162,148.151 58.075 C 148.303 57.915,148.336 57.713,148.696 54.792 C 148.806 53.898,148.957 53.167,149.031 53.167 C 149.106 53.167,149.167 52.796,149.167 52.343 C 149.167 51.890,149.242 51.473,149.333 51.417 C 149.425 51.360,149.500 50.985,149.500 50.583 C 149.500 50.182,149.575 49.807,149.667 49.750 C 149.758 49.693,149.833 49.318,149.833 48.917 C 149.833 48.515,149.908 48.140,150.000 48.083 C 150.092 48.027,150.167 47.610,150.167 47.157 C 150.167 46.704,150.242 46.333,150.333 46.333 C 150.425 46.333,150.500 46.011,150.500 45.617 C 150.500 45.222,150.568 44.829,150.651 44.742 C 150.733 44.655,150.843 44.246,150.894 43.833 C 151.237 41.080,151.433 39.842,151.542 39.735 C 151.610 39.667,151.667 39.253,151.667 38.815 C 151.667 38.378,151.742 37.973,151.833 37.917 C 151.925 37.860,152.000 37.481,152.000 37.073 C 152.000 36.666,152.075 36.333,152.167 36.333 C 152.258 36.333,152.333 36.000,152.333 35.593 C 152.333 35.186,152.408 34.807,152.500 34.750 C 152.592 34.693,152.667 34.239,152.667 33.740 C 152.667 33.241,152.742 32.833,152.833 32.833 C 152.925 32.833,153.000 32.511,153.000 32.117 C 153.000 31.722,153.068 31.329,153.151 31.242 C 153.303 31.082,153.336 30.879,153.696 27.958 C 153.806 27.065,153.957 26.333,154.031 26.333 C 154.106 26.333,154.167 25.963,154.167 25.510 C 154.167 25.057,154.242 24.640,154.333 24.583 C 154.425 24.527,154.500 24.152,154.500 23.750 C 154.500 23.348,154.575 22.973,154.667 22.917 C 154.758 22.860,154.833 22.481,154.833 22.073 C 154.833 21.666,154.908 21.333,155.000 21.333 C 155.092 21.333,155.167 20.963,155.167 20.510 C 155.167 20.057,155.242 19.640,155.333 19.583 C 155.425 19.527,155.500 19.162,155.500 18.773 C 155.500 18.385,155.568 17.995,155.651 17.908 C 155.733 17.821,155.843 17.412,155.894 17.000 C 156.237 14.247,156.433 13.009,156.542 12.901 C 156.610 12.833,156.667 12.457,156.667 12.065 C 156.667 11.674,156.742 11.307,156.833 11.250 C 156.925 11.193,157.000 10.776,157.000 10.323 C 157.000 9.871,157.074 9.500,157.165 9.500 C 157.272 9.500,157.357 17.090,157.409 31.292 C 157.452 43.277,157.531 54.452,157.585 56.125 L 157.681 59.167 165.007 59.167 L 172.333 59.167 172.333 52.927 C 172.333 48.946,172.273 46.649,172.167 46.583 C 172.060 46.517,172.000 43.974,172.000 39.500 C 172.000 35.026,171.940 32.483,171.833 32.417 C 171.727 32.351,171.667 29.804,171.667 25.323 C 171.667 20.774,171.608 18.333,171.500 18.333 C 171.392 18.333,171.333 16.120,171.333 12.026 C 171.333 8.557,171.284 4.807,171.224 3.693 L 171.115 1.667 159.224 1.667 C 147.444 1.667,147.333 1.670,147.333 2.000 C 147.333 2.183,147.258 2.333,147.167 2.333 C 147.075 2.333,147.000 2.741,147.000 3.240 C 147.000 3.739,146.925 4.193,146.833 4.250 C 146.742 4.307,146.667 4.757,146.667 5.250 C 146.667 5.743,146.599 6.189,146.516 6.240 C 146.433 6.291,146.312 7.122,146.246 8.086 C 146.180 9.050,146.061 9.879,145.980 9.929 C 145.899 9.979,145.833 10.423,145.833 10.917 C 145.833 11.410,145.758 11.860,145.667 11.917 C 145.575 11.973,145.500 12.428,145.500 12.927 C 145.500 13.425,145.425 13.833,145.333 13.833 C 145.241 13.833,145.167 14.278,145.167 14.833 C 145.167 15.389,145.093 15.833,145.000 15.833 C 144.908 15.833,144.833 16.241,144.833 16.740 C 144.833 17.239,144.758 17.693,144.667 17.750 C 144.575 17.807,144.500 18.257,144.500 18.750 C 144.500 19.243,144.425 19.693,144.333 19.750 C 144.242 19.807,144.167 20.257,144.167 20.750 C 144.167 21.243,144.098 21.689,144.014 21.741 C 143.930 21.793,143.808 22.660,143.743 23.668 C 143.677 24.676,143.558 25.500,143.479 25.500 C 143.399 25.500,143.333 25.912,143.333 26.417 C 143.333 26.921,143.258 27.333,143.167 27.333 C 143.075 27.333,143.000 27.741,143.000 28.240 C 143.000 28.739,142.925 29.193,142.833 29.250 C 142.742 29.307,142.667 29.799,142.667 30.343 C 142.667 30.892,142.592 31.333,142.500 31.333 C 142.408 31.333,142.333 31.741,142.333 32.240 C 142.333 32.739,142.258 33.193,142.167 33.250 C 142.075 33.307,142.000 33.761,142.000 34.260 C 142.000 34.759,141.925 35.167,141.833 35.167 C 141.742 35.167,141.667 35.547,141.667 36.011 C 141.667 36.475,141.596 36.987,141.510 37.149 C 141.423 37.310,141.300 38.205,141.236 39.138 C 141.172 40.070,141.055 40.833,140.976 40.833 C 140.898 40.833,140.833 41.321,140.833 41.917 C 140.833 42.528,140.761 43.000,140.667 43.000 C 140.575 43.000,140.500 43.267,140.500 43.593 C 140.500 43.946,140.433 44.145,140.333 44.083 C 140.242 44.027,140.167 43.577,140.167 43.083 C 140.167 42.590,140.092 42.140,140.000 42.083 C 139.908 42.027,139.833 41.572,139.833 41.073 C 139.833 40.575,139.758 40.167,139.667 40.167 C 139.575 40.167,139.500 39.759,139.500 39.260 C 139.500 38.761,139.425 38.307,139.333 38.250 C 139.242 38.193,139.167 37.739,139.167 37.240 C 139.167 36.741,139.103 36.333,139.026 36.333 C 138.949 36.333,138.797 35.452,138.690 34.375 C 138.370 31.181,138.310 30.758,138.151 30.592 C 138.068 30.505,138.000 30.040,138.000 29.560 C 138.000 29.079,137.925 28.640,137.833 28.583 C 137.742 28.527,137.667 28.072,137.667 27.573 C 137.667 27.075,137.592 26.667,137.500 26.667 C 137.408 26.667,137.333 26.259,137.333 25.760 C 137.333 25.261,137.258 24.807,137.167 24.750 C 137.075 24.693,137.000 24.201,137.000 23.657 C 137.000 23.108,136.926 22.667,136.833 22.667 C 136.742 22.667,136.667 22.254,136.667 21.750 C 136.667 21.246,136.601 20.833,136.521 20.833 C 136.442 20.833,136.323 20.009,136.257 19.001 C 136.192 17.994,136.070 17.127,135.986 17.075 C 135.902 17.023,135.833 16.577,135.833 16.083 C 135.833 15.590,135.758 15.140,135.667 15.083 C 135.575 15.027,135.500 14.577,135.500 14.083 C 135.500 13.590,135.425 13.140,135.333 13.083 C 135.242 13.027,135.167 12.572,135.167 12.073 C 135.167 11.575,135.092 11.167,135.000 11.167 C 134.907 11.167,134.833 10.722,134.833 10.167 C 134.833 9.611,134.759 9.167,134.667 9.167 C 134.575 9.167,134.500 8.754,134.500 8.250 C 134.500 7.746,134.425 7.333,134.333 7.333 C 134.241 7.333,134.167 6.898,134.167 6.361 C 134.167 5.826,134.110 5.333,134.042 5.265 C 133.973 5.197,133.842 4.379,133.750 3.446 L 133.583 1.750 121.548 1.707 L 109.512 1.664 109.421 5.624 M240.019 1.894 C 239.639 2.352,239.958 48.167,240.341 48.167 C 240.429 48.167,240.500 48.504,240.500 48.917 C 240.500 49.329,240.575 49.667,240.667 49.667 C 240.758 49.667,240.833 49.892,240.833 50.167 C 240.833 50.442,240.908 50.667,241.000 50.667 C 241.092 50.667,241.167 50.854,241.167 51.082 C 241.167 51.557,241.681 52.833,241.873 52.833 C 241.943 52.833,242.000 52.983,242.000 53.167 C 242.000 53.350,242.062 53.500,242.139 53.500 C 242.215 53.500,242.382 53.706,242.511 53.958 C 242.640 54.210,242.953 54.596,243.206 54.816 C 243.459 55.035,243.667 55.283,243.667 55.365 C 243.667 55.529,244.426 56.333,244.581 56.333 C 244.634 56.333,244.940 56.596,245.261 56.917 C 245.582 57.237,245.954 57.500,246.089 57.500 C 246.223 57.500,246.333 57.575,246.333 57.667 C 246.333 57.758,246.432 57.833,246.552 57.833 C 246.672 57.833,246.931 57.983,247.128 58.167 C 247.325 58.350,247.602 58.500,247.743 58.500 C 247.884 58.500,248.000 58.575,248.000 58.667 C 248.000 58.758,248.146 58.833,248.323 58.833 C 248.501 58.833,248.693 58.908,248.750 59.000 C 248.807 59.092,248.999 59.167,249.177 59.167 C 249.354 59.167,249.500 59.242,249.500 59.333 C 249.500 59.425,249.721 59.500,249.990 59.500 C 250.260 59.500,250.525 59.572,250.579 59.659 C 250.633 59.746,251.125 59.869,251.672 59.930 C 252.219 59.992,252.667 60.108,252.667 60.188 C 252.667 60.268,253.079 60.333,253.583 60.333 C 254.088 60.333,254.500 60.408,254.500 60.500 C 254.500 60.599,255.108 60.667,255.990 60.667 C 256.810 60.667,257.527 60.742,257.583 60.833 C 257.722 61.057,263.112 61.057,263.250 60.833 C 263.307 60.742,264.024 60.667,264.843 60.667 C 265.726 60.667,266.333 60.599,266.333 60.500 C 266.333 60.408,266.672 60.333,267.086 60.333 C 267.499 60.333,267.968 60.262,268.127 60.174 C 268.286 60.087,268.867 59.933,269.417 59.832 C 271.148 59.516,271.333 59.466,271.333 59.314 C 271.333 59.233,271.483 59.167,271.667 59.167 C 271.850 59.167,272.000 59.092,272.000 59.000 C 272.000 58.908,272.150 58.833,272.333 58.833 C 272.517 58.833,272.667 58.758,272.667 58.667 C 272.667 58.575,272.817 58.500,273.000 58.500 C 273.183 58.500,273.333 58.425,273.333 58.333 C 273.333 58.242,273.446 58.167,273.583 58.167 C 273.721 58.167,273.833 58.092,273.833 58.000 C 273.833 57.908,273.983 57.833,274.167 57.833 C 274.350 57.833,274.500 57.763,274.500 57.678 C 274.500 57.592,274.662 57.471,274.860 57.408 C 275.267 57.279,278.000 54.609,278.000 54.340 C 278.000 54.245,278.061 54.167,278.136 54.167 C 278.302 54.167,278.833 53.083,278.833 52.744 C 278.833 52.610,278.908 52.500,279.000 52.500 C 279.092 52.500,279.167 52.387,279.167 52.250 C 279.167 52.112,279.242 52.000,279.333 52.000 C 279.425 52.000,279.500 51.854,279.500 51.677 C 279.500 51.499,279.575 51.307,279.667 51.250 C 279.758 51.193,279.833 50.968,279.833 50.750 C 279.833 50.532,279.908 50.307,280.000 50.250 C 280.092 50.193,280.167 49.893,280.167 49.583 C 280.167 49.273,280.242 48.973,280.333 48.917 C 280.425 48.860,280.500 48.410,280.500 47.917 C 280.500 47.423,280.575 46.973,280.667 46.917 C 280.776 46.849,280.833 39.109,280.833 24.240 L 280.833 1.667 273.333 1.667 L 265.833 1.667 265.833 23.583 C 265.833 38.083,265.777 45.500,265.667 45.500 C 265.575 45.500,265.500 45.837,265.500 46.250 C 265.500 46.663,265.425 47.000,265.333 47.000 C 265.242 47.000,265.167 47.133,265.167 47.297 C 265.167 47.460,265.017 47.701,264.833 47.833 C 264.650 47.965,264.500 48.152,264.500 48.247 C 264.500 48.343,264.300 48.570,264.056 48.752 C 263.812 48.934,263.517 49.177,263.401 49.292 C 263.285 49.406,263.073 49.500,262.929 49.500 C 262.785 49.500,262.667 49.575,262.667 49.667 C 262.667 49.758,262.442 49.833,262.167 49.833 C 261.892 49.833,261.667 49.908,261.667 50.000 C 261.667 50.096,261.139 50.167,260.417 50.167 C 259.694 50.167,259.167 50.096,259.167 50.000 C 259.167 49.908,258.981 49.833,258.755 49.833 C 257.935 49.833,255.833 48.185,255.833 47.542 C 255.833 47.427,255.758 47.333,255.667 47.333 C 255.575 47.333,255.500 47.108,255.500 46.833 C 255.500 46.558,255.425 46.333,255.333 46.333 C 255.223 46.333,255.167 38.778,255.167 24.000 L 255.167 1.667 247.687 1.667 C 241.579 1.667,240.173 1.708,240.019 1.894 M296.167 30.083 L 296.167 58.500 303.500 58.500 L 310.833 58.500 310.833 53.927 C 310.833 51.057,310.771 49.315,310.667 49.250 C 310.559 49.183,310.500 45.890,310.500 39.917 C 310.500 33.943,310.441 30.650,310.333 30.583 C 310.226 30.517,310.167 27.578,310.167 22.314 C 310.167 16.912,310.223 14.182,310.333 14.250 C 310.425 14.307,310.500 14.569,310.500 14.833 C 310.500 15.098,310.575 15.360,310.667 15.417 C 310.758 15.473,310.833 15.703,310.833 15.927 C 310.833 16.150,310.898 16.333,310.977 16.333 C 311.057 16.333,311.170 16.686,311.229 17.117 C 311.340 17.931,311.601 18.873,311.854 19.373 C 311.934 19.532,312.000 19.809,312.000 19.988 C 312.000 20.167,312.075 20.360,312.167 20.417 C 312.258 20.473,312.333 20.698,312.333 20.917 C 312.333 21.135,312.408 21.360,312.500 21.417 C 312.592 21.473,312.667 21.736,312.667 22.000 C 312.667 22.264,312.742 22.527,312.833 22.583 C 312.925 22.640,313.000 22.869,313.000 23.093 C 313.000 23.317,313.075 23.500,313.167 23.500 C 313.258 23.500,313.333 23.725,313.333 24.000 C 313.333 24.275,313.408 24.500,313.500 24.500 C 313.592 24.500,313.667 24.716,313.667 24.981 C 313.667 25.475,314.080 27.025,314.349 27.539 C 314.432 27.699,314.500 27.975,314.500 28.155 C 314.500 28.334,314.575 28.527,314.667 28.583 C 314.758 28.640,314.833 28.902,314.833 29.167 C 314.833 29.431,314.908 29.693,315.000 29.750 C 315.092 29.807,315.167 30.036,315.167 30.260 C 315.167 30.484,315.242 30.667,315.333 30.667 C 315.425 30.667,315.500 30.892,315.500 31.167 C 315.500 31.442,315.575 31.667,315.667 31.667 C 315.758 31.667,315.833 31.929,315.833 32.250 C 315.833 32.571,315.900 32.833,315.981 32.833 C 316.062 32.833,316.180 33.245,316.242 33.747 C 316.305 34.250,316.426 34.705,316.512 34.757 C 316.597 34.810,316.667 35.032,316.667 35.250 C 316.667 35.468,316.742 35.693,316.833 35.750 C 316.925 35.807,317.000 36.069,317.000 36.333 C 317.000 36.598,317.075 36.860,317.167 36.917 C 317.258 36.973,317.333 37.203,317.333 37.427 C 317.333 37.650,317.408 37.833,317.500 37.833 C 317.592 37.833,317.667 38.058,317.667 38.333 C 317.667 38.608,317.742 38.833,317.833 38.833 C 317.925 38.833,318.000 39.096,318.000 39.417 C 318.000 39.737,318.075 40.000,318.167 40.000 C 318.258 40.000,318.333 40.225,318.333 40.500 C 318.333 40.775,318.400 41.000,318.481 41.000 C 318.562 41.000,318.680 41.411,318.742 41.914 C 318.805 42.417,318.926 42.871,319.012 42.924 C 319.097 42.977,319.167 43.236,319.167 43.500 C 319.167 43.764,319.242 44.027,319.333 44.083 C 319.425 44.140,319.500 44.365,319.500 44.583 C 319.500 44.802,319.575 45.027,319.667 45.083 C 319.758 45.140,319.833 45.369,319.833 45.593 C 319.833 45.817,319.908 46.000,320.000 46.000 C 320.092 46.000,320.167 46.262,320.167 46.583 C 320.167 46.904,320.242 47.167,320.333 47.167 C 320.425 47.167,320.500 47.392,320.500 47.667 C 320.500 47.942,320.575 48.167,320.667 48.167 C 320.758 48.167,320.833 48.392,320.833 48.667 C 320.833 48.942,320.898 49.167,320.977 49.167 C 321.057 49.167,321.170 49.519,321.229 49.951 C 321.340 50.764,321.601 51.707,321.854 52.206 C 321.934 52.365,322.000 52.646,322.000 52.831 C 322.000 53.016,322.075 53.167,322.167 53.167 C 322.258 53.167,322.333 53.387,322.333 53.657 C 322.333 53.926,322.408 54.193,322.500 54.250 C 322.592 54.307,322.667 54.574,322.667 54.843 C 322.667 55.113,322.742 55.333,322.833 55.333 C 322.925 55.333,323.000 55.558,323.000 55.833 C 323.000 56.108,323.075 56.333,323.167 56.333 C 323.258 56.333,323.333 56.558,323.333 56.833 C 323.333 57.108,323.408 57.333,323.500 57.333 C 323.592 57.333,323.667 57.596,323.667 57.917 L 323.667 58.500 334.250 58.500 L 344.833 58.500 344.833 30.082 L 344.833 1.663 337.492 1.707 L 330.150 1.750 330.162 10.912 C 330.170 16.628,330.236 20.136,330.337 20.237 C 330.439 20.339,330.500 23.732,330.500 29.283 C 330.500 35.094,330.558 38.167,330.667 38.167 C 330.772 38.167,330.833 39.420,330.833 41.593 C 330.833 43.835,330.776 44.984,330.667 44.917 C 330.575 44.860,330.500 44.593,330.500 44.323 C 330.500 44.054,330.425 43.833,330.333 43.833 C 330.242 43.833,330.167 43.613,330.167 43.343 C 330.167 43.074,330.092 42.807,330.000 42.750 C 329.908 42.693,329.833 42.426,329.833 42.157 C 329.833 41.887,329.758 41.667,329.667 41.667 C 329.575 41.667,329.500 41.442,329.500 41.167 C 329.500 40.892,329.425 40.667,329.333 40.667 C 329.242 40.667,329.167 40.404,329.167 40.083 C 329.167 39.762,329.102 39.500,329.023 39.500 C 328.943 39.500,328.830 39.147,328.771 38.716 C 328.660 37.902,328.399 36.960,328.146 36.461 C 328.066 36.301,328.000 36.025,328.000 35.845 C 328.000 35.666,327.925 35.473,327.833 35.417 C 327.742 35.360,327.667 35.056,327.667 34.740 C 327.667 34.425,327.592 34.167,327.500 34.167 C 327.408 34.167,327.333 33.942,327.333 33.667 C 327.333 33.392,327.258 33.167,327.167 33.167 C 327.075 33.167,327.000 32.904,327.000 32.583 C 327.000 32.262,326.925 32.000,326.833 32.000 C 326.742 32.000,326.667 31.775,326.667 31.500 C 326.667 31.225,326.602 31.000,326.523 31.000 C 326.444 31.000,326.291 30.531,326.183 29.958 C 325.846 28.171,325.800 28.000,325.648 28.000 C 325.566 28.000,325.500 27.742,325.500 27.427 C 325.500 27.111,325.425 26.807,325.333 26.750 C 325.242 26.693,325.167 26.464,325.167 26.240 C 325.167 26.016,325.092 25.833,325.000 25.833 C 324.908 25.833,324.833 25.613,324.833 25.343 C 324.833 25.074,324.758 24.807,324.667 24.750 C 324.575 24.693,324.500 24.431,324.500 24.167 C 324.500 23.902,324.425 23.640,324.333 23.583 C 324.242 23.527,324.167 23.297,324.167 23.073 C 324.167 22.850,324.101 22.667,324.022 22.667 C 323.942 22.667,323.826 22.219,323.764 21.672 C 323.702 21.125,323.580 20.633,323.492 20.579 C 323.405 20.525,323.333 20.264,323.333 20.000 C 323.333 19.736,323.258 19.473,323.167 19.417 C 323.075 19.360,323.000 19.093,323.000 18.823 C 323.000 18.554,322.925 18.333,322.833 18.333 C 322.742 18.333,322.667 18.108,322.667 17.833 C 322.667 17.558,322.592 17.333,322.500 17.333 C 322.408 17.333,322.333 17.071,322.333 16.750 C 322.333 16.429,322.258 16.167,322.167 16.167 C 322.075 16.167,322.000 15.942,322.000 15.667 C 322.000 15.392,321.925 15.167,321.833 15.167 C 321.742 15.167,321.667 14.904,321.667 14.583 C 321.667 14.262,321.600 14.000,321.519 14.000 C 321.438 14.000,321.320 13.589,321.258 13.086 C 321.195 12.583,321.074 12.129,320.988 12.076 C 320.903 12.023,320.833 11.764,320.833 11.500 C 320.833 11.236,320.758 10.973,320.667 10.917 C 320.575 10.860,320.500 10.593,320.500 10.323 C 320.500 10.054,320.425 9.833,320.333 9.833 C 320.242 9.833,320.167 9.571,320.167 9.250 C 320.167 8.929,320.092 8.667,320.000 8.667 C 319.908 8.667,319.833 8.442,319.833 8.167 C 319.833 7.892,319.758 7.667,319.667 7.667 C 319.575 7.667,319.500 7.446,319.500 7.177 C 319.500 6.907,319.425 6.640,319.333 6.583 C 319.242 6.527,319.167 6.260,319.167 5.990 C 319.167 5.721,319.106 5.500,319.032 5.500 C 318.913 5.500,318.700 4.628,318.392 2.875 C 318.340 2.577,318.230 2.333,318.148 2.333 C 318.067 2.333,318.000 2.183,318.000 2.000 C 318.000 1.670,317.889 1.667,307.083 1.667 L 296.167 1.667 296.167 30.083 " stroke="none" fill="#7d7d7d" fill-rule="evenodd"></path><path id="path1" d="" stroke="none" fill="#ffffff" fill-rule="evenodd"></path><path id="path2" d="" stroke="none" fill="#ffffff" fill-rule="evenodd"></path></g></svg>